<svg version="1.1" id="Layer_1" xmlns="http://www.w3.org/2000/svg" xmlns:xlink="http://www.w3.org/1999/xlink" x="0px" y="0px"
	 width="100%" viewBox="0 0 2856 991" enable-background="new 0 0 2856 991" xml:space="preserve">
<path fill="#FEFEFE" opacity="1.000000" stroke="none" 
	d="
M2249.000000,992.000000 
	C1499.333374,992.000000 750.166687,992.000000 1.000000,992.000000 
	C1.000000,661.666687 1.000000,331.333344 1.000000,1.000000 
	C953.000000,1.000000 1905.000000,1.000000 2857.000000,1.000000 
	C2857.000000,331.333344 2857.000000,661.666687 2857.000000,992.000000 
	C2654.500000,992.000000 2452.000000,992.000000 2249.000000,992.000000 
M1753.000000,223.003433 
	C1753.000000,223.003433 1752.884644,223.117722 1752.999878,223.801926 
	C1762.722290,237.224472 1772.444702,250.647018 1782.685913,264.785858 
	C1784.797485,261.520660 1786.290283,259.212402 1787.943237,256.890411 
	C1787.943237,256.890411 1787.909546,256.733093 1788.311646,256.695160 
	C1788.588379,256.515869 1788.651489,256.279602 1788.907715,255.624847 
	C1788.961792,255.451706 1789.015747,255.278580 1789.672607,254.838043 
	C1801.253906,238.974274 1812.881592,223.144043 1824.401489,207.235794 
	C1833.075806,195.257217 1841.611938,183.178497 1850.051636,171.062195 
	C1850.051636,171.062195 1850.177979,171.187637 1850.793091,170.940231 
	C1883.059937,126.703308 1915.326782,82.466377 1948.042603,37.613777 
	C1837.594604,37.613777 1728.208252,37.613777 1617.560669,37.613777 
	C1621.487183,42.674870 1624.708618,46.827297 1627.932251,51.054615 
	C1627.932251,51.054615 1628.002930,51.079243 1628.104980,51.749004 
	C1641.735596,70.572990 1655.338745,89.417061 1669.013428,108.209000 
	C1673.191528,113.950546 1677.566284,119.548920 1681.983765,125.656227 
	C1681.983765,125.656227 1682.353516,125.934616 1682.406372,126.595901 
	C1687.078369,132.861603 1691.750366,139.127319 1696.520142,145.454376 
	C1696.520142,145.454376 1696.564453,145.561050 1696.798462,146.184586 
	C1703.974365,156.192276 1711.081787,166.250031 1718.348022,176.191666 
	C1724.026245,183.960602 1729.901733,191.585434 1736.011597,199.041641 
	C1736.011597,199.041641 1735.683594,199.263138 1735.774048,199.958649 
	C1741.475952,207.676300 1747.177734,215.393951 1753.000000,223.003433 
M2821.968506,86.053673 
	C2821.968506,86.053673 2821.851318,86.172493 2821.972900,85.316269 
	C2822.727783,83.097931 2823.482910,80.879593 2824.439209,78.069725 
	C2824.256836,77.908607 2822.906250,77.012169 2821.936279,75.809021 
	C2816.756592,69.384628 2809.570068,66.026497 2802.135498,63.401119 
	C2798.992432,62.291168 2795.234619,62.921909 2790.949219,62.712357 
	C2779.211426,58.813072 2767.194824,57.558609 2755.015381,59.741699 
	C2719.180664,66.164879 2695.265381,97.650269 2699.027832,133.187027 
	C2703.036621,171.048737 2731.188721,195.345627 2769.407715,193.929001 
	C2807.591553,192.513657 2837.644531,157.298492 2833.288818,119.483383 
	C2832.048584,108.714890 2828.801025,98.775719 2824.162109,88.619698 
	C2825.492188,85.804710 2823.613281,86.010010 2821.968506,86.053673 
M1532.849609,589.500000 
	C1532.849609,606.403748 1532.849609,623.307556 1532.849609,640.173096 
	C1553.219116,640.173096 1572.773315,640.173096 1592.860596,640.173096 
	C1592.860596,474.000610 1592.860596,308.213715 1592.860596,141.312958 
	C1656.260986,228.802750 1718.946411,315.305847 1781.975830,402.283691 
	C1845.660645,314.920380 1908.866211,228.214539 1972.071777,141.508713 
	C1972.413208,141.635696 1972.754517,141.762680 1973.095947,141.889664 
	C1973.095947,307.904205 1973.095947,473.918732 1973.095947,640.133911 
	C1993.281250,640.133911 2012.960938,640.133911 2032.557617,640.133911 
	C2032.557617,439.305481 2032.557617,238.901962 2032.557617,38.505695 
	C2031.770996,38.309780 2031.302856,38.091827 2030.834473,38.091114 
	C2012.503296,38.063210 1994.171021,37.968887 1975.842529,38.187653 
	C1974.147339,38.207890 1971.973022,39.867977 1970.865723,41.383556 
	C1908.860718,126.250633 1846.946533,211.183975 1785.014282,296.104187 
	C1784.095947,297.363586 1783.064575,298.540558 1781.943237,299.933075 
	C1781.031982,298.804688 1780.482178,298.185242 1779.999268,297.517517 
	C1752.768921,259.862518 1725.532593,222.211899 1698.321655,184.542877 
	C1664.086182,137.149673 1629.844604,89.760719 1595.710449,42.294586 
	C1593.443970,39.142838 1591.092773,37.886848 1587.149170,37.953701 
	C1571.988403,38.210712 1556.820923,38.060200 1541.655884,38.061577 
	C1538.879272,38.061829 1536.102661,38.061615 1532.849609,38.061615 
	C1532.849609,221.964493 1532.849609,405.232239 1532.849609,589.500000 
M449.856110,121.638496 
	C393.670288,68.783302 327.431580,39.392109 249.942413,38.323761 
	C182.465088,37.393456 114.965431,38.081760 47.475647,38.081741 
	C46.382812,38.081741 45.289982,38.424641 44.334923,38.584465 
	C44.334923,239.322266 44.334923,439.704468 44.334923,640.545715 
	C46.327526,640.545715 47.958702,640.545715 49.589878,640.545715 
	C113.747421,640.547241 177.905380,640.698242 242.062393,640.513306 
	C326.755066,640.269165 399.232574,610.062073 456.915741,548.162659 
	C522.169556,478.139130 549.635315,394.549835 538.002869,299.224457 
	C529.577942,230.184280 499.345795,171.382812 449.856110,121.638496 
M675.213806,620.288208 
	C731.049622,658.108826 792.331055,669.943726 857.759583,655.272522 
	C924.468567,640.314148 974.732422,601.647095 1009.007385,542.519165 
	C1014.951477,532.264893 1019.511292,521.208252 1025.070679,509.781952 
	C1022.511047,509.596527 1021.401550,509.446899 1020.291992,509.446075 
	C1001.793152,509.432678 983.291016,509.625580 964.797668,509.308594 
	C960.108765,509.228210 957.813293,510.868378 955.576721,514.795837 
	C918.267334,580.311646 839.322388,614.094177 766.256348,595.984070 
	C696.929810,578.800903 645.028687,521.843506 634.393433,451.092163 
	C632.188843,436.425507 631.749573,421.672516 633.440552,406.436890 
	C768.825073,406.436890 903.894897,406.436890 1039.179199,406.436890 
	C1039.179199,404.825867 1039.252930,403.687195 1039.168335,402.560394 
	C1037.332397,378.082581 1031.125122,354.733154 1021.704834,332.086853 
	C968.165039,203.378555 817.273926,149.591217 695.079773,216.334961 
	C607.590454,264.122498 557.899475,362.661041 576.584106,467.099426 
	C588.063843,531.265808 621.479553,582.085938 675.213806,620.288208 
M2474.419189,597.515381 
	C2474.419189,611.770508 2474.419189,626.025696 2474.419189,640.181824 
	C2494.765869,640.181824 2514.319336,640.181824 2533.688721,640.181824 
	C2533.688721,495.417145 2533.688721,351.031097 2533.688721,206.481049 
	C2513.791504,206.481049 2494.385254,206.481049 2474.362305,206.481049 
	C2474.362305,226.091507 2474.362305,245.443817 2474.362305,266.214478 
	C2471.539062,263.107300 2469.772217,260.994629 2467.833740,259.053680 
	C2411.042236,202.196960 2342.499512,177.879547 2263.345215,191.021240 
	C2175.141602,205.665344 2114.074463,257.320770 2082.211670,340.274933 
	C2054.175293,413.267395 2062.308350,484.585907 2103.228027,551.573547 
	C2152.031250,631.467407 2249.111572,674.575928 2341.005859,657.671387 
	C2390.789307,648.513367 2433.017578,625.452637 2468.307617,589.369019 
	C2470.077148,587.559570 2471.883057,585.785583 2473.998291,583.668945 
	C2474.264160,584.886353 2474.394287,585.208435 2474.395996,585.531189 
	C2474.415039,589.195190 2474.414551,592.859314 2474.419189,597.515381 
M1189.515503,282.999695 
	C1190.658813,282.031494 1191.781982,281.038361 1192.948364,280.098755 
	C1222.267822,256.477509 1255.364746,245.014160 1292.992798,251.438400 
	C1357.794312,262.501892 1402.832031,316.603333 1403.071655,382.515503 
	C1403.376953,466.505981 1403.661377,550.496521 1403.953857,634.487000 
	C1403.960449,636.395081 1403.954712,638.303101 1403.954712,640.180420 
	C1424.823608,640.180420 1444.888672,640.180420 1465.388916,640.180420 
	C1465.388916,638.337952 1465.392822,636.865662 1465.388428,635.393372 
	C1465.132690,550.402283 1465.173218,465.409027 1464.546753,380.420685 
	C1463.705811,266.347900 1361.759644,172.347763 1245.863281,189.856735 
	C1212.951538,194.828857 1183.461548,207.462524 1158.682617,230.009583 
	C1152.883423,235.286453 1147.999878,241.569534 1142.145752,247.992401 
	C1142.145752,235.077957 1142.145752,222.729095 1142.145752,210.435852 
	C1122.028442,210.435852 1102.489014,210.435852 1083.044312,210.435852 
	C1083.044312,353.940460 1083.044312,497.040253 1083.044312,640.142944 
	C1103.166870,640.142944 1123.022583,640.142944 1143.182861,640.142944 
	C1143.182861,637.892883 1143.188354,636.074341 1143.182129,634.255798 
	C1142.900391,552.097778 1142.539429,469.939911 1142.440674,387.781708 
	C1142.429321,378.339264 1142.984253,368.717346 1144.816528,359.484253 
	C1150.824829,329.207947 1166.465210,304.275848 1189.515503,282.999695 
M2830.311035,227.500565 
	C2830.311035,221.218964 2830.311035,214.937363 2830.311035,208.289810 
	C2796.151367,208.364075 2763.978271,214.967163 2733.585449,229.318161 
	C2703.271973,243.631393 2676.040771,262.152985 2654.875000,289.633514 
	C2654.875000,262.892181 2654.875000,236.664688 2654.875000,210.463654 
	C2635.049561,210.463654 2615.681641,210.463654 2596.861328,210.463654 
	C2596.861328,353.937836 2596.861328,496.995758 2596.861328,640.267456 
	C2616.865479,640.267456 2636.112549,640.267456 2655.878174,640.267456 
	C2655.878174,638.040771 2655.877930,636.083862 2655.878174,634.126953 
	C2655.880371,571.136902 2655.888428,508.146851 2655.881836,445.156799 
	C2655.879395,421.714081 2659.862793,398.979706 2669.201660,377.462097 
	C2694.043457,320.223480 2736.957764,284.700531 2798.158203,271.900452 
	C2808.500488,269.737335 2819.209473,269.326843 2830.311035,268.041504 
	C2830.311035,255.069443 2830.311035,241.784882 2830.311035,227.500565 
M147.500580,947.824524 
	C110.417603,947.824524 73.334618,947.824524 36.271999,947.824524 
	C36.271999,951.460632 36.271999,954.350769 36.271999,957.274658 
	C965.041565,957.274658 1893.433716,957.274658 2821.770752,957.274658 
	C2821.770752,953.989014 2821.770752,951.075134 2821.770752,947.824768 
	C1930.457764,947.824768 1039.479126,947.824768 147.500580,947.824524 
M2283.500000,701.865662 
	C2462.929688,701.865662 2642.359375,701.865662 2821.740234,701.865662 
	C2821.740234,698.279175 2821.740234,695.394348 2821.740234,692.529419 
	C1892.958130,692.529419 964.575500,692.529419 36.266258,692.529419 
	C36.266258,695.764221 36.266258,698.656738 36.266258,701.865662 
	C785.267334,701.865662 1533.883667,701.865662 2283.500000,701.865662 
M143.723145,800.630981 
	C142.265686,788.131287 140.808228,775.631592 139.327362,762.931030 
	C133.947891,762.931030 129.091797,763.302246 124.320503,762.825256 
	C119.669685,762.360291 118.115974,764.351135 116.956192,768.518188 
	C109.965027,793.636536 102.694878,818.677185 95.362206,844.288269 
	C94.881248,842.891174 94.514145,841.991028 94.259209,841.060059 
	C87.443626,816.172119 80.666771,791.273499 73.757622,766.411621 
	C73.391373,765.093689 71.969940,763.132874 70.959991,763.082886 
	C64.719170,762.774231 58.455490,762.927795 52.058399,762.927795 
	C47.933281,800.036316 43.890614,836.403076 39.812630,873.087585 
	C45.784592,873.087585 51.213593,873.087585 56.977173,873.087585 
	C59.655415,845.890320 62.322029,818.811157 65.124207,790.355286 
	C72.718506,817.236145 80.020020,842.658936 86.990433,868.172241 
	C88.140076,872.380127 89.977341,873.947205 94.158524,873.386658 
	C96.231979,873.108704 98.373489,873.338318 100.561913,873.338318 
	C108.064720,847.195740 115.418503,821.572388 122.772285,795.949036 
	C123.250244,795.913452 123.728210,795.877869 124.206169,795.842285 
	C128.001251,821.426575 129.370041,847.318542 132.423599,872.931519 
	C138.927200,872.931519 145.134918,872.931519 151.722504,872.931519 
	C149.051178,848.816345 146.432281,825.174255 143.723145,800.630981 
M1796.706055,870.077026 
	C1797.840088,871.137878 1798.914795,873.027893 1800.118652,873.114014 
	C1805.005737,873.463684 1809.932495,873.259460 1814.834717,873.259460 
	C1814.834717,836.133911 1814.834717,799.753784 1814.834717,763.321045 
	C1809.107544,763.321045 1803.730835,763.321045 1797.760986,763.321045 
	C1797.760986,788.583069 1797.760986,813.472168 1797.760986,839.003052 
	C1783.331299,814.430969 1769.368530,790.594849 1755.295288,766.823975 
	C1754.379150,765.276550 1752.690186,763.235901 1751.233276,763.126892 
	C1745.504883,762.698486 1739.725586,762.951416 1733.925049,762.951416 
	C1733.925049,800.009521 1733.925049,836.412048 1733.925049,872.897339 
	C1739.721313,872.897339 1745.240845,872.897339 1751.052002,872.897339 
	C1751.052002,845.974243 1751.052002,819.467163 1751.052002,792.277954 
	C1758.893799,805.639954 1766.361694,818.358826 1773.823608,831.081299 
	C1781.316528,843.856567 1788.803345,856.635437 1796.706055,870.077026 
M449.488098,874.985718 
	C457.635406,873.576843 466.125824,873.167114 473.846649,870.516113 
	C484.433411,866.880981 490.141541,858.461060 491.370148,847.114014 
	C492.606628,835.694397 488.215729,826.941162 479.053894,820.493958 
	C476.016357,818.356567 472.481628,816.925598 469.148712,815.158142 
	C469.151245,815.150574 469.159210,814.898315 469.263367,814.848877 
	C470.452118,814.285217 471.660889,813.764038 472.854004,813.209351 
	C480.405090,809.698975 485.460968,804.088867 487.258392,795.835266 
	C490.537781,780.776611 482.038727,767.789612 465.560394,763.522156 
	C450.508331,759.624207 435.544891,760.695618 420.805542,765.662415 
	C417.625580,766.733948 416.515137,768.372864 416.528992,771.796875 
	C416.653717,802.604858 416.656799,833.414124 416.475342,864.221680 
	C416.453674,867.896240 417.653625,870.105957 421.009644,870.686157 
	C430.151367,872.266663 439.341339,873.567810 449.488098,874.985718 
M326.548950,841.502930 
	C326.548950,836.135925 326.548950,830.768860 326.548950,825.401855 
	C328.506256,826.552673 329.376923,827.890015 330.226685,829.240417 
	C338.741943,842.773621 347.219452,856.330872 355.817963,869.810974 
	C356.709442,871.208557 358.267181,873.081604 359.595551,873.148376 
	C366.346222,873.488037 373.123230,873.304993 380.813965,873.304993 
	C369.621552,856.596680 358.977081,840.706421 348.062683,824.413208 
	C349.768158,824.115540 350.420105,823.999878 351.072662,823.887939 
	C366.745911,821.199036 376.359985,811.515503 377.263519,797.507080 
	C378.362579,780.466248 370.338593,768.012329 354.670166,763.661865 
	C339.990356,759.585938 325.348480,760.604492 310.898743,765.466492 
	C307.253052,766.693176 306.245972,768.681519 306.263184,772.413757 
	C306.410553,804.409607 306.349396,836.406372 306.350525,868.402893 
	C306.350586,869.856689 306.350525,871.310425 306.350525,872.908691 
	C313.351746,872.908691 319.870453,872.908691 326.547852,872.908691 
	C326.547852,862.486328 326.547852,852.494141 326.548950,841.502930 
M1505.186768,761.431030 
	C1494.784790,760.959106 1484.625366,761.976440 1474.718384,765.525269 
	C1471.099365,766.821533 1470.086426,768.707153 1470.103882,772.436157 
	C1470.253418,804.399963 1470.188599,836.364807 1470.187988,868.329346 
	C1470.187988,869.794678 1470.188110,871.260010 1470.188110,873.025269 
	C1477.029663,873.025269 1483.431641,873.025269 1490.641113,873.025269 
	C1490.641113,857.153198 1490.641113,841.415527 1490.641113,824.217041 
	C1492.279785,826.497375 1492.987671,827.378113 1493.584473,828.328613 
	C1502.255859,842.136963 1510.893311,855.966858 1519.603760,869.750610 
	C1520.451294,871.091614 1521.684814,873.143005 1522.815674,873.194824 
	C1529.799194,873.514526 1536.804810,873.355286 1544.740234,873.355286 
	C1538.709839,864.372620 1533.433960,856.512878 1528.157227,848.653687 
	C1522.833008,840.723572 1517.508057,832.793945 1512.026245,824.630127 
	C1524.969360,821.785950 1530.534546,818.991394 1534.968506,813.334106 
	C1549.054321,795.362122 1539.534302,768.719055 1516.951660,763.139709 
	C1513.417358,762.266602 1509.725586,762.030090 1505.186768,761.431030 
M1075.071655,831.440674 
	C1083.045776,844.135071 1090.990723,856.848022 1099.033813,869.498535 
	C1099.959473,870.954285 1101.377319,873.091797 1102.660156,873.159912 
	C1109.521606,873.524170 1116.412720,873.331665 1124.250732,873.331665 
	C1112.988892,856.490479 1102.398315,840.653381 1091.503906,824.361633 
	C1093.216431,824.112915 1094.169189,823.996704 1095.113770,823.833984 
	C1110.101440,821.252502 1119.652588,811.404175 1120.785400,797.372314 
	C1122.048096,781.731262 1114.283691,768.777039 1099.902100,764.220276 
	C1084.659180,759.390503 1069.353638,760.443970 1054.231567,765.568604 
	C1050.777588,766.739075 1049.854858,768.560791 1049.870361,772.092834 
	C1050.011230,804.424561 1049.948730,836.757141 1049.961182,869.089478 
	C1049.961670,870.372925 1050.117676,871.656311 1050.202759,872.964417 
	C1056.894287,872.964417 1063.292725,872.964417 1070.151367,872.964417 
	C1070.151367,856.884705 1070.151367,841.168152 1070.151367,825.451660 
	C1070.453247,825.352539 1070.755127,825.253418 1071.057007,825.154358 
	C1072.268677,827.043091 1073.480469,828.931885 1075.071655,831.440674 
M2262.042725,798.260681 
	C2267.682129,794.953857 2272.088623,790.553528 2273.965332,784.127625 
	C2278.371582,769.043030 2270.743164,755.864136 2253.963135,753.748047 
	C2236.611572,751.559753 2218.911377,752.135254 2201.381348,751.502380 
	C2201.381348,789.346069 2201.381348,826.017944 2201.381348,862.023926 
	C2218.726807,862.023926 2235.734863,862.879333 2252.619385,861.801208 
	C2272.426025,860.536560 2284.980225,845.858032 2284.235840,827.040527 
	C2283.733154,814.343201 2276.742432,805.121887 2264.629883,800.973022 
	C2263.462646,800.573303 2262.542480,799.452271 2262.042725,798.260681 
M2386.772949,780.315918 
	C2381.606934,793.730225 2381.061035,807.575256 2383.132080,821.605408 
	C2386.685303,845.677124 2401.472412,861.343323 2425.093994,864.492920 
	C2452.852295,868.194153 2475.771484,856.070801 2482.383057,826.675903 
	C2484.669678,816.509888 2484.677979,805.471680 2483.736572,795.011047 
	C2481.499756,770.153015 2465.354980,753.727112 2441.434814,750.274475 
	C2416.889893,746.731750 2396.778564,757.563416 2386.772949,780.315918 
M1175.698730,852.308167 
	C1178.574585,843.708740 1176.206055,845.118042 1185.756470,845.004517 
	C1193.587158,844.911438 1201.422852,845.093567 1209.250244,844.903809 
	C1212.265503,844.830688 1213.606689,845.772034 1214.395142,848.794983 
	C1216.242920,855.878601 1218.475952,862.867493 1220.764648,869.825195 
	C1221.198486,871.143860 1222.562500,873.083008 1223.576294,873.132874 
	C1229.812012,873.439941 1236.070435,873.286865 1242.047729,873.286865 
	C1242.353027,872.429016 1242.486816,872.253357 1242.447876,872.134277 
	C1230.794067,836.551697 1219.146606,800.966980 1207.374390,765.423523 
	C1207.026733,764.374023 1205.391846,763.099304 1204.309937,763.053711 
	C1198.670410,762.816223 1193.015381,762.942932 1187.141479,762.942932 
	C1174.980957,799.761353 1162.904419,836.325195 1150.684692,873.322632 
	C1156.167358,873.322632 1160.828247,873.168030 1165.472168,873.380432 
	C1168.282349,873.508850 1169.633911,872.614807 1170.371338,869.805481 
	C1171.850342,864.171509 1173.728271,858.642151 1175.698730,852.308167 
M218.215347,763.031555 
	C217.498520,764.268372 216.542816,765.425537 216.099930,766.753662 
	C206.099014,796.743713 196.148148,826.750610 186.204773,856.759827 
	C184.451813,862.050171 182.774521,867.365540 180.851898,873.321045 
	C184.509964,873.321045 187.474243,873.375488 190.435959,873.311218 
	C201.483856,873.071533 198.379959,875.197327 201.759186,865.091370 
	C203.967041,858.488525 205.931381,851.804199 208.057556,844.987305 
	C219.172836,844.987305 229.991974,844.887085 240.803452,845.129639 
	C241.988632,845.156311 243.743622,846.944458 244.189102,848.267517 
	C246.628983,855.513916 248.677979,862.890991 251.032471,870.167786 
	C251.420181,871.366150 252.619965,873.162781 253.507019,873.200195 
	C259.762390,873.464172 266.034149,873.340332 273.124664,873.340332 
	C260.775452,835.977356 248.703781,799.454041 236.633286,762.934326 
	C230.403732,762.934326 224.748672,762.934326 218.215347,763.031555 
M1285.805176,774.627502 
	C1285.004395,771.566956 1284.388428,768.438721 1283.305542,765.481445 
	C1282.912109,764.407104 1281.429810,763.040222 1280.400879,763.002747 
	C1274.108032,762.773560 1267.802612,762.888123 1260.990112,762.888123 
	C1261.624390,765.180725 1262.070923,766.925842 1262.589355,768.649231 
	C1271.982910,799.874878 1281.404175,831.092224 1290.775757,862.324463 
	C1294.067749,873.295532 1294.028198,872.985168 1305.472656,873.469849 
	C1310.630371,873.688232 1312.561768,872.004822 1313.943604,867.166199 
	C1322.351196,837.727051 1331.118164,808.390625 1339.747925,779.014832 
	C1341.267456,773.842102 1342.705688,768.645508 1344.342407,762.894409 
	C1338.591675,762.894409 1333.606323,763.104919 1328.649292,762.819519 
	C1325.414551,762.633240 1324.383667,764.050293 1323.683594,766.901306 
	C1320.587524,779.510315 1317.278931,792.067078 1314.067017,804.647827 
	C1310.578003,818.313721 1307.110962,831.985229 1303.606934,845.762329 
	C1297.707275,822.207825 1291.849365,798.820068 1285.805176,774.627502 
M2638.745850,815.250549 
	C2641.365967,812.380188 2642.152832,815.713806 2643.131104,816.803284 
	C2655.926025,831.052185 2668.584717,845.422974 2681.349121,859.699219 
	C2682.496582,860.982666 2684.086670,862.629700 2685.561035,862.725891 
	C2691.073486,863.085327 2696.623779,862.869629 2703.188477,862.869629 
	C2685.487305,842.765808 2668.590088,823.575256 2651.510498,804.177429 
	C2667.904785,786.879089 2684.025391,769.869629 2700.878174,752.087585 
	C2696.239014,752.087585 2693.040527,752.386597 2689.920654,752.019043 
	C2684.980469,751.436829 2681.667480,753.373535 2678.368164,757.001587 
	C2663.354248,773.511108 2648.056885,789.762817 2632.844971,806.091736 
	C2631.940674,807.062622 2630.893066,807.900085 2629.114258,809.531067 
	C2629.114258,789.723877 2629.114258,771.143921 2629.114258,752.395508 
	C2624.181885,752.395508 2619.622803,752.395508 2614.997803,752.395508 
	C2614.997803,789.270508 2614.997803,825.836914 2614.997803,862.554321 
	C2619.833252,862.554321 2624.390869,862.554321 2629.264648,862.554321 
	C2629.264648,854.419617 2629.869873,846.547180 2629.110596,838.808716 
	C2628.175293,829.278137 2630.440430,821.553711 2638.745850,815.250549 
M646.499512,873.327576 
	C654.581299,873.327576 662.663086,873.327576 670.710449,873.327576 
	C670.710449,868.314453 670.710449,864.085144 670.710449,859.318604 
	C659.626648,859.318604 648.901733,859.318604 638.075256,859.318604 
	C638.075256,847.211365 638.075256,835.653137 638.075256,823.505737 
	C647.911621,823.505737 657.450623,823.505737 667.062866,823.505737 
	C667.062866,818.653809 667.062866,814.396729 667.062866,809.579224 
	C657.234924,809.579224 647.668091,809.579224 638.050903,809.579224 
	C638.050903,798.437256 638.050903,787.862305 638.050903,776.799683 
	C649.065735,776.799683 659.809753,776.799683 670.668274,776.799683 
	C670.668274,771.942322 670.668274,767.582581 670.668274,763.262573 
	C652.677490,763.262573 635.117493,763.262573 617.378784,763.262573 
	C617.378784,800.017639 617.378784,836.411072 617.378784,873.327393 
	C626.920105,873.327393 636.209778,873.327393 646.499512,873.327576 
M1377.864502,770.557983 
	C1377.864502,804.669067 1377.864502,838.780090 1377.864502,872.915283 
	C1396.114990,872.915283 1413.814331,872.915283 1431.415161,872.915283 
	C1431.415161,868.368103 1431.415161,864.248474 1431.415161,859.595215 
	C1420.437256,859.595215 1409.679321,859.595215 1398.641235,859.595215 
	C1398.641235,847.367920 1398.641235,835.685608 1398.641235,823.570312 
	C1408.466797,823.570312 1417.909912,823.570312 1427.595459,823.570312 
	C1427.595459,818.778870 1427.595459,814.425232 1427.595459,809.521729 
	C1417.650757,809.521729 1408.076294,809.521729 1398.576172,809.521729 
	C1398.576172,798.372986 1398.576172,787.781860 1398.576172,776.755371 
	C1409.640625,776.755371 1420.405762,776.755371 1431.294678,776.755371 
	C1431.294678,771.936829 1431.294678,767.571411 1431.294678,763.279663 
	C1413.303345,763.279663 1395.734985,763.279663 1377.865601,763.279663 
	C1377.865601,765.611694 1377.865601,767.592712 1377.864502,770.557983 
M1857.778809,765.654053 
	C1857.778809,801.401184 1857.778809,837.148254 1857.778809,872.997864 
	C1875.930176,872.997864 1893.481812,872.997864 1911.169678,872.997864 
	C1911.169678,868.415771 1911.169678,864.172424 1911.169678,859.413940 
	C1900.144287,859.413940 1889.407715,859.413940 1878.414429,859.413940 
	C1878.414429,847.326538 1878.414429,835.757812 1878.414429,823.618774 
	C1888.208008,823.618774 1897.779053,823.618774 1907.598145,823.618774 
	C1907.598145,818.813354 1907.598145,814.577759 1907.598145,809.635376 
	C1897.658203,809.635376 1887.967163,809.635376 1878.460693,809.635376 
	C1878.460693,798.338257 1878.460693,787.750610 1878.460693,776.759644 
	C1889.524780,776.759644 1900.275513,776.759644 1911.086914,776.759644 
	C1911.086914,771.965332 1911.086914,767.589661 1911.086914,762.915222 
	C1893.872314,762.915222 1877.064453,762.890381 1860.257324,762.990295 
	C1859.437744,762.995117 1858.624756,764.093994 1857.778809,765.654053 
M2502.106445,816.182129 
	C2502.413574,818.323853 2502.629150,820.483398 2503.042236,822.604431 
	C2506.999023,842.917908 2517.775635,857.368286 2538.490479,862.749390 
	C2556.931396,867.539856 2574.456055,864.124756 2591.237549,855.783081 
	C2592.062744,855.372803 2593.285645,854.572327 2593.306152,853.921387 
	C2593.474609,848.606689 2593.401123,843.284424 2593.401123,836.781738 
	C2583.847900,845.088745 2574.184082,849.846619 2563.023193,851.623291 
	C2542.097900,854.954224 2525.104980,844.851013 2519.373779,824.957520 
	C2515.736328,812.329956 2515.958252,799.517639 2520.291504,787.091980 
	C2525.147705,773.167114 2534.912109,764.641846 2549.864014,763.056763 
	C2563.121826,761.651306 2575.282227,764.962891 2586.198242,772.679810 
	C2588.335693,774.190857 2590.457764,775.723389 2593.513428,777.908447 
	C2593.513428,772.387268 2593.791260,767.779236 2593.370361,763.235840 
	C2593.212646,761.532227 2591.752686,758.974854 2590.336426,758.520142 
	C2581.049805,755.538269 2571.761475,751.679321 2562.195801,750.622864 
	C2537.786865,747.927002 2512.260742,757.402832 2504.473633,787.543335 
	C2502.186523,796.395386 2502.776123,805.990723 2502.106445,816.182129 
M2031.160400,790.626709 
	C2024.712036,798.677795 2018.421265,806.863403 2011.731934,814.709045 
	C2009.307739,817.552246 2009.796143,819.238159 2011.911377,821.834717 
	C2022.945312,835.380127 2033.797119,849.073853 2044.714722,862.714111 
	C2047.373779,866.036255 2050.041992,869.351196 2053.051025,873.099243 
	C2068.003418,854.426453 2082.503174,836.318726 2097.070801,818.126465 
	C2082.251953,799.657837 2067.817383,781.667847 2052.974365,763.168945 
	C2045.616333,772.454529 2038.625854,781.276611 2031.160400,790.626709 
M820.561340,863.096741 
	C831.588257,849.336182 842.505493,835.485168 853.727539,821.885681 
	C856.194946,818.895447 855.878235,817.151611 853.608582,814.359375 
	C840.806458,798.609131 828.205994,782.695007 815.518860,766.851135 
	C814.623413,765.732849 813.583984,764.729797 812.347046,763.385803 
	C797.598816,781.864075 783.124023,799.999756 768.619202,818.173035 
	C783.396790,836.655884 797.784851,854.651550 812.500183,873.056519 
	C815.329102,869.559265 817.718689,866.605164 820.561340,863.096741 
M993.038086,793.501709 
	C993.038086,788.070251 993.038086,782.638794 993.038086,776.694092 
	C1000.242676,776.694092 1006.805542,776.694092 1013.435181,776.694092 
	C1013.435181,771.906555 1013.435181,767.654114 1013.435181,763.202026 
	C992.887451,763.202026 972.662598,763.202026 952.281555,763.202026 
	C952.281555,767.859314 952.281555,772.213562 952.281555,776.973999 
	C959.112305,776.973999 965.541382,776.973999 972.557129,776.973999 
	C972.557129,809.249390 972.557129,841.116638 972.557129,873.076965 
	C979.593567,873.076965 986.027466,873.076965 993.038086,873.076965 
	C993.038086,846.715393 993.038086,820.608337 993.038086,793.501709 
M1613.210693,797.500244 
	C1613.210693,790.726379 1613.210693,783.952454 1613.210693,776.719604 
	C1620.433594,776.719604 1627.022583,776.719604 1633.705078,776.719604 
	C1633.705078,771.984314 1633.705078,767.728638 1633.705078,763.198364 
	C1613.243408,763.198364 1593.020386,763.198364 1572.542114,763.198364 
	C1572.542114,767.847107 1572.542114,772.207214 1572.542114,777.133545 
	C1579.498535,777.133545 1586.056641,777.133545 1592.974365,777.133545 
	C1592.974365,809.458130 1592.974365,841.214600 1592.974365,872.881836 
	C1599.912720,872.881836 1606.450195,872.881836 1613.210815,872.881836 
	C1613.210815,847.795471 1613.210815,823.147827 1613.210693,797.500244 
M530.115295,763.780273 
	C530.093811,799.897949 530.071289,836.015564 530.070801,872.133240 
	C530.070801,872.404114 530.373596,872.674988 530.584351,873.028748 
	C547.277344,873.028748 564.007324,873.028748 580.787964,873.028748 
	C580.787964,868.461609 580.787964,864.210815 580.787964,859.495056 
	C570.768311,859.495056 561.018250,859.495056 550.701904,859.495056 
	C550.701904,827.164734 550.701904,795.297485 550.701904,763.108582 
	C543.687988,763.108582 537.243958,763.108582 530.115295,763.780273 
M2352.500000,862.883240 
	C2359.938721,862.883240 2367.377441,862.883240 2374.781250,862.883240 
	C2374.781250,858.182007 2374.781250,854.113464 2374.781250,849.584961 
	C2356.367432,849.584961 2338.291016,849.584961 2319.777832,849.584961 
	C2319.777832,816.876404 2319.777832,784.633789 2319.777832,752.375671 
	C2314.744873,752.375671 2310.164795,752.375671 2305.406738,752.375671 
	C2305.406738,789.232971 2305.406738,825.798767 2305.406738,862.883240 
	C2320.939941,862.883240 2336.219971,862.883240 2352.500000,862.883240 
M1670.107300,794.500000 
	C1670.107300,820.604553 1670.107300,846.709045 1670.107300,872.906982 
	C1677.260742,872.906982 1683.946777,872.906982 1690.540894,872.906982 
	C1690.540894,836.103271 1690.540894,799.724915 1690.540894,763.285645 
	C1683.623535,763.285645 1677.071167,763.285645 1670.107300,763.285645 
	C1670.107300,773.587585 1670.107300,783.543823 1670.107300,794.500000 
M2824.485107,82.583031 
	C2824.485107,82.583031 2824.423828,82.476074 2824.485107,82.583031 
z"/>
<path fill="#181817" opacity="1.000000" stroke="none" 
	d="
M1532.849609,589.000000 
	C1532.849609,405.232239 1532.849609,221.964493 1532.849609,38.061615 
	C1536.102661,38.061615 1538.879272,38.061829 1541.655884,38.061577 
	C1556.820923,38.060200 1571.988403,38.210712 1587.149170,37.953701 
	C1591.092773,37.886848 1593.443970,39.142838 1595.710449,42.294586 
	C1629.844604,89.760719 1664.086182,137.149673 1698.321655,184.542877 
	C1725.532593,222.211899 1752.768921,259.862518 1779.999268,297.517517 
	C1780.482178,298.185242 1781.031982,298.804688 1781.943237,299.933075 
	C1783.064575,298.540558 1784.095947,297.363586 1785.014282,296.104187 
	C1846.946533,211.183975 1908.860718,126.250633 1970.865723,41.383556 
	C1971.973022,39.867977 1974.147339,38.207890 1975.842529,38.187653 
	C1994.171021,37.968887 2012.503296,38.063210 2030.834473,38.091114 
	C2031.302856,38.091827 2031.770996,38.309780 2032.557617,38.505695 
	C2032.557617,238.901962 2032.557617,439.305481 2032.557617,640.133911 
	C2012.960938,640.133911 1993.281250,640.133911 1973.095947,640.133911 
	C1973.095947,473.918732 1973.095947,307.904205 1973.095947,141.889664 
	C1972.754517,141.762680 1972.413208,141.635696 1972.071777,141.508713 
	C1908.866211,228.214539 1845.660645,314.920380 1781.975830,402.283691 
	C1718.946411,315.305847 1656.260986,228.802750 1592.860596,141.312958 
	C1592.860596,308.213715 1592.860596,474.000610 1592.860596,640.173096 
	C1572.773315,640.173096 1553.219116,640.173096 1532.849609,640.173096 
	C1532.849609,623.307556 1532.849609,606.403748 1532.849609,589.000000 
z"/>
<path fill="#181817" opacity="1.000000" stroke="none" 
	d="
M450.108276,121.888237 
	C499.345795,171.382812 529.577942,230.184280 538.002869,299.224457 
	C549.635315,394.549835 522.169556,478.139130 456.915741,548.162659 
	C399.232574,610.062073 326.755066,640.269165 242.062393,640.513306 
	C177.905380,640.698242 113.747421,640.547241 49.589878,640.545715 
	C47.958702,640.545715 46.327526,640.545715 44.334923,640.545715 
	C44.334923,439.704468 44.334923,239.322266 44.334923,38.584465 
	C45.289982,38.424641 46.382812,38.081741 47.475647,38.081741 
	C114.965431,38.081760 182.465088,37.393456 249.942413,38.323761 
	C327.431580,39.392109 393.670288,68.783302 450.108276,121.888237 
M103.830116,171.499924 
	C103.830116,307.552612 103.830116,443.605316 103.830116,579.819946 
	C105.531715,579.896362 106.509689,579.978699 107.487679,579.978821 
	C154.144150,579.984680 200.802658,580.252197 247.456467,579.900513 
	C287.041199,579.602112 324.545013,570.166443 358.508972,549.697083 
	C432.575226,505.058868 474.261688,439.592712 480.229065,352.985077 
	C485.033234,283.258728 462.147491,222.523224 414.100830,172.176041 
	C366.959198,122.777199 308.618469,97.950111 239.882278,98.347694 
	C196.226974,98.600204 152.568863,98.366852 108.912018,98.369057 
	C107.325371,98.369133 105.738739,98.556831 103.830109,98.677437 
	C103.830109,122.899605 103.830109,146.699753 103.830116,171.499924 
z"/>
<path fill="#171716" opacity="1.000000" stroke="none" 
	d="
M674.912109,620.092041 
	C621.479553,582.085938 588.063843,531.265808 576.584106,467.099426 
	C557.899475,362.661041 607.590454,264.122498 695.079773,216.334961 
	C817.273926,149.591217 968.165039,203.378555 1021.704834,332.086853 
	C1031.125122,354.733154 1037.332397,378.082581 1039.168335,402.560394 
	C1039.252930,403.687195 1039.179199,404.825867 1039.179199,406.436890 
	C903.894897,406.436890 768.825073,406.436890 633.440552,406.436890 
	C631.749573,421.672516 632.188843,436.425507 634.393433,451.092163 
	C645.028687,521.843506 696.929810,578.800903 766.256348,595.984070 
	C839.322388,614.094177 918.267334,580.311646 955.576721,514.795837 
	C957.813293,510.868378 960.108765,509.228210 964.797668,509.308594 
	C983.291016,509.625580 1001.793152,509.432678 1020.291992,509.446075 
	C1021.401550,509.446899 1022.511047,509.596527 1025.070679,509.781952 
	C1019.511292,521.208252 1014.951477,532.264893 1009.007385,542.519165 
	C974.732422,601.647095 924.468567,640.314148 857.759583,655.272522 
	C792.331055,669.943726 731.049622,658.108826 674.912109,620.092041 
M680.364868,302.871399 
	C668.479431,315.642822 658.367065,329.604309 650.747498,345.714172 
	C754.640564,345.714172 857.719971,345.714172 961.220459,345.714172 
	C960.869629,344.607086 960.743225,343.803223 960.381592,343.124725 
	C929.249756,284.716492 880.586548,252.399734 814.645935,248.498016 
	C762.134705,245.390900 717.640198,264.997253 680.364868,302.871399 
z"/>
<path fill="#171716" opacity="1.000000" stroke="none" 
	d="
M2474.419434,597.019409 
	C2474.414551,592.859314 2474.415039,589.195190 2474.395996,585.531189 
	C2474.394287,585.208435 2474.264160,584.886353 2473.998291,583.668945 
	C2471.883057,585.785583 2470.077148,587.559570 2468.307617,589.369019 
	C2433.017578,625.452637 2390.789307,648.513367 2341.005859,657.671387 
	C2249.111572,674.575928 2152.031250,631.467407 2103.228027,551.573547 
	C2062.308350,484.585907 2054.175293,413.267395 2082.211670,340.274933 
	C2114.074463,257.320770 2175.141602,205.665344 2263.345215,191.021240 
	C2342.499512,177.879547 2411.042236,202.196960 2467.833740,259.053680 
	C2469.772217,260.994629 2471.539062,263.107300 2474.362305,266.214478 
	C2474.362305,245.443817 2474.362305,226.091507 2474.362305,206.481049 
	C2494.385254,206.481049 2513.791504,206.481049 2533.688721,206.481049 
	C2533.688721,351.031097 2533.688721,495.417145 2533.688721,640.181824 
	C2514.319336,640.181824 2494.765869,640.181824 2474.419189,640.181824 
	C2474.419189,626.025696 2474.419189,611.770508 2474.419434,597.019409 
M2396.689453,571.212280 
	C2466.789062,524.089050 2493.755615,433.364349 2460.769287,355.627533 
	C2428.542236,279.680298 2349.062012,236.012375 2269.987793,250.808365 
	C2173.520264,268.858887 2109.673096,362.676819 2129.675293,458.754486 
	C2142.613525,520.900757 2178.898926,565.405334 2238.176270,588.705383 
	C2293.193359,610.330872 2346.288818,603.539490 2396.689453,571.212280 
z"/>
<path fill="#171716" opacity="1.000000" stroke="none" 
	d="
M1189.245117,283.227295 
	C1166.465210,304.275848 1150.824829,329.207947 1144.816528,359.484253 
	C1142.984253,368.717346 1142.429321,378.339264 1142.440674,387.781708 
	C1142.539429,469.939911 1142.900391,552.097778 1143.182129,634.255798 
	C1143.188354,636.074341 1143.182861,637.892883 1143.182861,640.142944 
	C1123.022583,640.142944 1103.166870,640.142944 1083.044312,640.142944 
	C1083.044312,497.040253 1083.044312,353.940460 1083.044312,210.435852 
	C1102.489014,210.435852 1122.028442,210.435852 1142.145752,210.435852 
	C1142.145752,222.729095 1142.145752,235.077957 1142.145752,247.992401 
	C1147.999878,241.569534 1152.883423,235.286453 1158.682617,230.009583 
	C1183.461548,207.462524 1212.951538,194.828857 1245.863281,189.856735 
	C1361.759644,172.347763 1463.705811,266.347900 1464.546753,380.420685 
	C1465.173218,465.409027 1465.132690,550.402283 1465.388428,635.393372 
	C1465.392822,636.865662 1465.388916,638.337952 1465.388916,640.180420 
	C1444.888672,640.180420 1424.823608,640.180420 1403.954712,640.180420 
	C1403.954712,638.303101 1403.960449,636.395081 1403.953857,634.487000 
	C1403.661377,550.496521 1403.376953,466.505981 1403.071655,382.515503 
	C1402.832031,316.603333 1357.794312,262.501892 1292.992798,251.438400 
	C1255.364746,245.014160 1222.267822,256.477509 1192.948364,280.098755 
	C1191.781982,281.038361 1190.658813,282.031494 1189.245117,283.227295 
z"/>
<path fill="#181817" opacity="1.000000" stroke="none" 
	d="
M2830.311035,228.000458 
	C2830.311035,241.784882 2830.311035,255.069443 2830.311035,268.041504 
	C2819.209473,269.326843 2808.500488,269.737335 2798.158203,271.900452 
	C2736.957764,284.700531 2694.043457,320.223480 2669.201660,377.462097 
	C2659.862793,398.979706 2655.879395,421.714081 2655.881836,445.156799 
	C2655.888428,508.146851 2655.880371,571.136902 2655.878174,634.126953 
	C2655.877930,636.083862 2655.878174,638.040771 2655.878174,640.267456 
	C2636.112549,640.267456 2616.865479,640.267456 2596.861328,640.267456 
	C2596.861328,496.995758 2596.861328,353.937836 2596.861328,210.463654 
	C2615.681641,210.463654 2635.049561,210.463654 2654.875000,210.463654 
	C2654.875000,236.664688 2654.875000,262.892181 2654.875000,289.633514 
	C2676.040771,262.152985 2703.271973,243.631393 2733.585449,229.318161 
	C2763.978271,214.967163 2796.151367,208.364075 2830.311035,208.289810 
	C2830.311035,214.937363 2830.311035,221.218964 2830.311035,228.000458 
z"/>
<path fill="#D70112" opacity="1.000000" stroke="none" 
	d="
M1789.069824,255.105469 
	C1789.015747,255.278580 1788.961792,255.451706 1788.530029,255.853821 
	C1787.939209,256.250183 1787.858276,256.466949 1787.909546,256.733093 
	C1787.909546,256.733093 1787.943237,256.890411 1787.530518,256.938232 
	C1785.677368,258.255859 1784.236816,259.525604 1782.705811,260.875153 
	C1782.091309,260.412811 1781.437744,260.124939 1781.084351,259.625000 
	C1773.681152,249.151611 1766.400391,238.590027 1758.860962,228.216339 
	C1757.364136,226.156769 1754.901733,224.799103 1752.884644,223.117752 
	C1752.884644,223.117722 1753.000000,223.003433 1752.984375,222.680359 
	C1752.832275,221.718002 1752.879395,220.947754 1752.531250,220.459167 
	C1747.700562,213.677841 1742.840210,206.917007 1737.898560,200.216354 
	C1737.486816,199.657806 1736.437012,199.569748 1735.683594,199.263138 
	C1735.683594,199.263138 1736.011597,199.041641 1735.941162,198.783325 
	C1732.717896,193.957535 1729.592651,189.370667 1726.406738,184.826416 
	C1718.192383,173.109787 1710.012207,161.368164 1701.654419,149.754547 
	C1700.412842,148.029221 1698.283325,146.942947 1696.564453,145.561050 
	C1696.564453,145.561050 1696.520142,145.454376 1696.628906,145.061768 
	C1692.428711,138.486679 1688.130981,132.296234 1683.773071,126.148399 
	C1683.581299,125.877693 1682.839233,125.996971 1682.353516,125.934616 
	C1682.353516,125.934616 1681.983765,125.656227 1681.972900,125.059235 
	C1680.889038,122.445633 1680.002930,120.299026 1678.707031,118.437592 
	C1675.231079,113.444618 1671.581177,108.572784 1667.997559,103.654732 
	C1661.678345,94.982010 1655.318970,86.338120 1649.049561,77.629570 
	C1644.552002,71.381874 1640.329834,64.929611 1635.673584,58.805290 
	C1633.496216,55.941391 1630.582764,53.637165 1628.002930,51.079254 
	C1628.002930,51.079243 1627.932251,51.054615 1627.973145,50.642036 
	C1626.229248,46.820198 1624.444580,43.410938 1622.583252,39.855137 
	C1630.484619,39.510155 1637.469360,38.943897 1644.454346,38.939629 
	C1740.878784,38.880684 1837.303101,38.885452 1933.727539,38.959354 
	C1936.839600,38.961739 1939.950806,39.864887 1943.069946,40.349281 
	C1937.648071,48.324486 1932.943481,55.675785 1927.805420,62.710629 
	C1917.754395,76.472099 1907.384033,90.000137 1897.296875,103.735672 
	C1890.975952,112.342926 1885.006836,121.207687 1878.742676,129.857605 
	C1869.621094,142.453201 1860.351562,154.941788 1851.231079,167.538223 
	C1850.532593,168.503082 1850.513184,169.959656 1850.177979,171.187653 
	C1850.177979,171.187637 1850.051636,171.062195 1849.791016,171.183578 
	C1848.426880,172.281998 1847.106934,173.100082 1846.254272,174.261398 
	C1839.932373,182.870773 1833.813721,191.630890 1827.412231,200.179733 
	C1821.856201,207.599426 1815.874756,214.701065 1810.337769,222.134186 
	C1805.203857,229.026123 1800.262939,236.074112 1795.525513,243.243988 
	C1793.053101,246.985992 1791.201782,251.138412 1789.069824,255.105469 
z"/>
<path fill="#252525" opacity="1.000000" stroke="none" 
	d="
M148.000595,947.824646 
	C1039.479126,947.824768 1930.457764,947.824768 2821.770752,947.824768 
	C2821.770752,951.075134 2821.770752,953.989014 2821.770752,957.274658 
	C1893.433716,957.274658 965.041565,957.274658 36.271999,957.274658 
	C36.271999,954.350769 36.271999,951.460632 36.271999,947.824524 
	C73.334618,947.824524 110.417603,947.824524 148.000595,947.824646 
z"/>
<path fill="#232323" opacity="1.000000" stroke="none" 
	d="
M2283.000000,701.865662 
	C1533.883667,701.865662 785.267334,701.865662 36.266258,701.865662 
	C36.266258,698.656738 36.266258,695.764221 36.266258,692.529419 
	C964.575500,692.529419 1892.958130,692.529419 2821.740234,692.529419 
	C2821.740234,695.394348 2821.740234,698.279175 2821.740234,701.865662 
	C2642.359375,701.865662 2462.929688,701.865662 2283.000000,701.865662 
z"/>
<path fill="#050505" opacity="1.000000" stroke="none" 
	d="
M2823.859131,89.264130 
	C2828.801025,98.775719 2832.048584,108.714890 2833.288818,119.483383 
	C2837.644531,157.298492 2807.591553,192.513657 2769.407715,193.929001 
	C2731.188721,195.345627 2703.036621,171.048737 2699.027832,133.187027 
	C2695.265381,97.650269 2719.180664,66.164879 2755.015381,59.741699 
	C2767.194824,57.558609 2779.211426,58.813072 2791.561035,62.981743 
	C2804.322021,67.970253 2813.910645,76.004562 2821.851318,86.172493 
	C2821.851318,86.172493 2821.968506,86.053673 2821.924561,86.416718 
	C2822.540039,87.607887 2823.199707,88.436005 2823.859131,89.264130 
M2722.118408,112.314842 
	C2721.708984,115.857651 2721.299561,119.400452 2720.632324,123.670341 
	C2720.762939,127.138145 2720.536865,130.663513 2721.086182,134.063675 
	C2723.338135,148.003098 2729.035156,159.874283 2742.340332,167.709229 
	C2758.850098,177.934753 2784.191406,174.059845 2791.695312,165.157486 
	C2789.745117,165.157486 2787.964111,165.184082 2786.184082,165.152939 
	C2777.782471,165.005981 2775.584473,163.323868 2772.981445,155.221771 
	C2771.660889,151.110687 2770.439453,146.953079 2768.836182,142.951538 
	C2767.333008,139.199493 2764.453369,137.464676 2760.027588,138.251465 
	C2760.027588,144.539673 2760.088379,150.512283 2760.010254,156.483078 
	C2759.934082,162.303619 2757.787109,164.650879 2751.972412,165.022415 
	C2748.668213,165.233551 2745.334717,164.985794 2741.520508,164.449448 
	C2737.767822,162.933716 2736.650391,160.035614 2736.657471,156.159637 
	C2736.680420,143.794418 2736.496826,131.428818 2736.686768,118.270576 
	C2736.562012,115.462227 2736.437256,112.653885 2736.630859,109.086876 
	C2736.630859,102.511696 2736.630859,95.936523 2736.630859,89.448349 
	C2730.139893,95.061096 2724.850586,102.352654 2722.118408,112.314842 
M2774.332031,79.521301 
	C2764.001221,77.969574 2754.156738,79.218315 2743.627686,84.756599 
	C2751.055908,84.756599 2757.082275,84.756599 2763.989258,84.928795 
	C2769.574219,85.629150 2775.300781,85.775169 2780.711670,87.157036 
	C2789.299805,89.350250 2794.757568,95.135445 2796.404053,104.016136 
	C2798.045898,112.870720 2796.715576,120.926399 2789.285400,126.997612 
	C2788.426025,127.699753 2787.264893,128.032928 2786.243896,128.537231 
	C2786.999512,128.708771 2787.754883,128.880295 2788.510498,129.051834 
	C2792.669434,138.616211 2796.828369,148.180588 2801.069336,157.933228 
	C2809.337158,148.099136 2812.312744,136.491211 2811.757080,123.796814 
	C2810.734863,100.436516 2795.855713,82.769218 2774.332031,79.521301 
M2772.197021,111.487450 
	C2771.045410,106.532181 2768.081787,105.351875 2760.410645,106.874245 
	C2760.410645,110.195450 2760.410645,113.533310 2760.410645,117.323997 
	C2764.998291,116.447647 2770.411133,119.000000 2772.197021,111.487450 
z"/>
<path fill="#1C1C1B" opacity="1.000000" stroke="none" 
	d="
M143.768250,801.081604 
	C146.432281,825.174255 149.051178,848.816345 151.722504,872.931519 
	C145.134918,872.931519 138.927200,872.931519 132.423599,872.931519 
	C129.370041,847.318542 128.001251,821.426575 124.206169,795.842285 
	C123.728210,795.877869 123.250244,795.913452 122.772285,795.949036 
	C115.418503,821.572388 108.064720,847.195740 100.561913,873.338318 
	C98.373489,873.338318 96.231979,873.108704 94.158524,873.386658 
	C89.977341,873.947205 88.140076,872.380127 86.990433,868.172241 
	C80.020020,842.658936 72.718506,817.236145 65.124207,790.355286 
	C62.322029,818.811157 59.655415,845.890320 56.977173,873.087585 
	C51.213593,873.087585 45.784592,873.087585 39.812630,873.087585 
	C43.890614,836.403076 47.933281,800.036316 52.058399,762.927795 
	C58.455490,762.927795 64.719170,762.774231 70.959991,763.082886 
	C71.969940,763.132874 73.391373,765.093689 73.757622,766.411621 
	C80.666771,791.273499 87.443626,816.172119 94.259209,841.060059 
	C94.514145,841.991028 94.881248,842.891174 95.362206,844.288269 
	C102.694878,818.677185 109.965027,793.636536 116.956192,768.518188 
	C118.115974,764.351135 119.669685,762.360291 124.320503,762.825256 
	C129.091797,763.302246 133.947891,762.931030 139.327362,762.931030 
	C140.808228,775.631592 142.265686,788.131287 143.768250,801.081604 
z"/>
<path fill="#1A1A19" opacity="1.000000" stroke="none" 
	d="
M1796.499512,869.744873 
	C1788.803345,856.635437 1781.316528,843.856567 1773.823608,831.081299 
	C1766.361694,818.358826 1758.893799,805.639954 1751.052002,792.277954 
	C1751.052002,819.467163 1751.052002,845.974243 1751.052002,872.897339 
	C1745.240845,872.897339 1739.721313,872.897339 1733.925049,872.897339 
	C1733.925049,836.412048 1733.925049,800.009521 1733.925049,762.951416 
	C1739.725586,762.951416 1745.504883,762.698486 1751.233276,763.126892 
	C1752.690186,763.235901 1754.379150,765.276550 1755.295288,766.823975 
	C1769.368530,790.594849 1783.331299,814.430969 1797.760986,839.003052 
	C1797.760986,813.472168 1797.760986,788.583069 1797.760986,763.321045 
	C1803.730835,763.321045 1809.107544,763.321045 1814.834717,763.321045 
	C1814.834717,799.753784 1814.834717,836.133911 1814.834717,873.259460 
	C1809.932495,873.259460 1805.005737,873.463684 1800.118652,873.114014 
	C1798.914795,873.027893 1797.840088,871.137878 1796.499512,869.744873 
z"/>
<path fill="#1B1B1A" opacity="1.000000" stroke="none" 
	d="
M449.000153,874.982666 
	C439.341339,873.567810 430.151367,872.266663 421.009644,870.686157 
	C417.653625,870.105957 416.453674,867.896240 416.475342,864.221680 
	C416.656799,833.414124 416.653717,802.604858 416.528992,771.796875 
	C416.515137,768.372864 417.625580,766.733948 420.805542,765.662415 
	C435.544891,760.695618 450.508331,759.624207 465.560394,763.522156 
	C482.038727,767.789612 490.537781,780.776611 487.258392,795.835266 
	C485.460968,804.088867 480.405090,809.698975 472.854004,813.209351 
	C471.660889,813.764038 470.452118,814.285217 469.263367,814.848877 
	C469.159210,814.898315 469.151245,815.150574 469.148712,815.158142 
	C472.481628,816.925598 476.016357,818.356567 479.053894,820.493958 
	C488.215729,826.941162 492.606628,835.694397 491.370148,847.114014 
	C490.141541,858.461060 484.433411,866.880981 473.846649,870.516113 
	C466.125824,873.167114 457.635406,873.576843 449.000153,874.982666 
M470.698456,837.217163 
	C466.985504,823.517517 454.356415,817.703796 436.096222,821.524292 
	C436.096222,833.574402 436.036621,845.701843 436.201233,857.826294 
	C436.215515,858.878357 437.533417,860.581726 438.542938,860.845459 
	C446.620697,862.956299 454.749573,863.270996 462.363220,859.262390 
	C471.054932,854.686401 471.559631,846.558777 470.698456,837.217163 
M449.748535,810.413452 
	C457.397797,809.639771 464.533844,807.577820 466.967499,799.285645 
	C469.236084,791.555908 469.761322,783.239197 462.844269,777.571594 
	C454.903198,771.065125 445.528656,772.325195 436.315491,774.884460 
	C436.315491,786.893127 436.315491,798.476746 436.315491,810.474609 
	C440.640778,810.474609 444.753052,810.474609 449.748535,810.413452 
z"/>
<path fill="#1E1E1D" opacity="1.000000" stroke="none" 
	d="
M326.548401,842.002441 
	C326.547852,852.494141 326.547852,862.486328 326.547852,872.908691 
	C319.870453,872.908691 313.351746,872.908691 306.350525,872.908691 
	C306.350525,871.310425 306.350586,869.856689 306.350525,868.402893 
	C306.349396,836.406372 306.410553,804.409607 306.263184,772.413757 
	C306.245972,768.681519 307.253052,766.693176 310.898743,765.466492 
	C325.348480,760.604492 339.990356,759.585938 354.670166,763.661865 
	C370.338593,768.012329 378.362579,780.466248 377.263519,797.507080 
	C376.359985,811.515503 366.745911,821.199036 351.072662,823.887939 
	C350.420105,823.999878 349.768158,824.115540 348.062683,824.413208 
	C358.977081,840.706421 369.621552,856.596680 380.813965,873.304993 
	C373.123230,873.304993 366.346222,873.488037 359.595551,873.148376 
	C358.267181,873.081604 356.709442,871.208557 355.817963,869.810974 
	C347.219452,856.330872 338.741943,842.773621 330.226685,829.240417 
	C329.376923,827.890015 328.506256,826.552673 326.548950,825.401855 
	C326.548950,830.768860 326.548950,836.135925 326.548401,842.002441 
M357.055725,800.068787 
	C357.089081,797.739807 357.229553,795.406555 357.138428,793.082458 
	C356.560699,778.347839 347.585693,771.078186 332.969910,773.196472 
	C328.391479,773.859985 325.809387,775.309875 326.428040,780.695618 
	C326.994354,785.625427 326.543762,790.671875 326.543152,795.666931 
	C326.542236,803.126343 326.542908,810.585693 326.542908,817.866272 
	C342.213348,822.139832 353.641357,815.601624 357.055725,800.068787 
z"/>
<path fill="#1B1B1A" opacity="1.000000" stroke="none" 
	d="
M1505.646729,761.465088 
	C1509.725586,762.030090 1513.417358,762.266602 1516.951660,763.139709 
	C1539.534302,768.719055 1549.054321,795.362122 1534.968506,813.334106 
	C1530.534546,818.991394 1524.969360,821.785950 1512.026245,824.630127 
	C1517.508057,832.793945 1522.833008,840.723572 1528.157227,848.653687 
	C1533.433960,856.512878 1538.709839,864.372620 1544.740234,873.355286 
	C1536.804810,873.355286 1529.799194,873.514526 1522.815674,873.194824 
	C1521.684814,873.143005 1520.451294,871.091614 1519.603760,869.750610 
	C1510.893311,855.966858 1502.255859,842.136963 1493.584473,828.328613 
	C1492.987671,827.378113 1492.279785,826.497375 1490.641113,824.217041 
	C1490.641113,841.415527 1490.641113,857.153198 1490.641113,873.025269 
	C1483.431641,873.025269 1477.029663,873.025269 1470.188110,873.025269 
	C1470.188110,871.260010 1470.187988,869.794678 1470.187988,868.329346 
	C1470.188599,836.364807 1470.253418,804.399963 1470.103882,772.436157 
	C1470.086426,768.707153 1471.099365,766.821533 1474.718384,765.525269 
	C1484.625366,761.976440 1494.784790,760.959106 1505.646729,761.465088 
M1515.365356,812.827759 
	C1520.600952,807.306030 1521.351929,800.484070 1521.096436,793.331848 
	C1520.526489,777.372864 1508.445801,768.933350 1493.240234,774.107056 
	C1491.988770,774.532898 1490.459839,776.525085 1490.437988,777.812866 
	C1490.225708,790.302795 1490.240723,802.798645 1490.416016,815.289673 
	C1490.432373,816.467285 1491.884766,818.541138 1492.839233,818.644836 
	C1500.749512,819.504272 1508.519653,819.269409 1515.365356,812.827759 
z"/>
<path fill="#1B1B1A" opacity="1.000000" stroke="none" 
	d="
M1074.881958,831.130615 
	C1073.480469,828.931885 1072.268677,827.043091 1071.057007,825.154358 
	C1070.755127,825.253418 1070.453247,825.352539 1070.151367,825.451660 
	C1070.151367,841.168152 1070.151367,856.884705 1070.151367,872.964417 
	C1063.292725,872.964417 1056.894287,872.964417 1050.202759,872.964417 
	C1050.117676,871.656311 1049.961670,870.372925 1049.961182,869.089478 
	C1049.948730,836.757141 1050.011230,804.424561 1049.870361,772.092834 
	C1049.854858,768.560791 1050.777588,766.739075 1054.231567,765.568604 
	C1069.353638,760.443970 1084.659180,759.390503 1099.902100,764.220276 
	C1114.283691,768.777039 1122.048096,781.731262 1120.785400,797.372314 
	C1119.652588,811.404175 1110.101440,821.252502 1095.113770,823.833984 
	C1094.169189,823.996704 1093.216431,824.112915 1091.503906,824.361633 
	C1102.398315,840.653381 1112.988892,856.490479 1124.250732,873.331665 
	C1116.412720,873.331665 1109.521606,873.524170 1102.660156,873.159912 
	C1101.377319,873.091797 1099.959473,870.954285 1099.033813,869.498535 
	C1090.990723,856.848022 1083.045776,844.135071 1074.881958,831.130615 
M1069.980713,787.520386 
	C1069.980591,796.519165 1069.882202,805.520203 1070.081787,814.514526 
	C1070.113403,815.938232 1071.335938,818.443420 1072.265381,818.570801 
	C1083.693115,820.136719 1097.632202,817.983032 1100.059204,802.143433 
	C1103.383911,780.445312 1094.447388,772.383423 1078.530640,773.057251 
	C1070.476074,773.398193 1069.980591,773.924438 1069.980713,782.031860 
	C1069.980835,783.531677 1069.980713,785.031433 1069.980713,787.520386 
z"/>
<path fill="#C8132D" opacity="1.000000" stroke="none" 
	d="
M2261.775391,798.463379 
	C2262.542480,799.452271 2263.462646,800.573303 2264.629883,800.973022 
	C2276.742432,805.121887 2283.733154,814.343201 2284.235840,827.040527 
	C2284.980225,845.858032 2272.426025,860.536560 2252.619385,861.801208 
	C2235.734863,862.879333 2218.726807,862.023926 2201.381348,862.023926 
	C2201.381348,826.017944 2201.381348,789.346069 2201.381348,751.502380 
	C2218.911377,752.135254 2236.611572,751.559753 2253.963135,753.748047 
	C2270.743164,755.864136 2278.371582,769.043030 2273.965332,784.127625 
	C2272.088623,790.553528 2267.682129,794.953857 2261.775391,798.463379 
M2215.797363,834.497498 
	C2215.797363,839.594238 2215.797363,844.690979 2215.797363,849.735168 
	C2226.821777,849.735168 2237.267822,849.956909 2247.694824,849.612488 
	C2251.247070,849.495117 2254.940674,848.392456 2258.242188,846.976379 
	C2266.604004,843.389526 2269.990234,836.216492 2268.921875,825.537842 
	C2268.122314,817.550537 2263.263672,811.298340 2254.786377,810.414795 
	C2241.986572,809.080872 2229.044434,809.112915 2215.797363,808.548828 
	C2215.797363,817.583618 2215.797363,825.541138 2215.797363,834.497498 
M2246.820312,795.786743 
	C2247.923340,795.415039 2249.056885,795.114441 2250.124756,794.660278 
	C2257.193359,791.654419 2260.574463,785.404602 2259.604492,777.212280 
	C2258.779541,770.246277 2255.160889,766.107971 2246.950439,765.517639 
	C2236.745117,764.783813 2226.447266,765.341675 2216.205811,765.341675 
	C2216.205811,775.751526 2216.205811,786.111389 2216.205811,795.932190 
	C2226.413330,795.932190 2236.204346,795.932190 2246.820312,795.786743 
z"/>
<path fill="#C8132D" opacity="1.000000" stroke="none" 
	d="
M2386.894775,779.949524 
	C2396.778564,757.563416 2416.889893,746.731750 2441.434814,750.274475 
	C2465.354980,753.727112 2481.499756,770.153015 2483.736572,795.011047 
	C2484.677979,805.471680 2484.669678,816.509888 2482.383057,826.675903 
	C2475.771484,856.070801 2452.852295,868.194153 2425.093994,864.492920 
	C2401.472412,861.343323 2386.685303,845.677124 2383.132080,821.605408 
	C2381.061035,807.575256 2381.606934,793.730225 2386.894775,779.949524 
M2419.025879,765.234558 
	C2409.067871,769.693970 2402.996094,777.548767 2400.078369,787.792725 
	C2396.396484,800.719849 2396.295410,813.821777 2399.973145,826.762512 
	C2404.675049,843.307495 2416.967773,852.403809 2433.804688,852.271851 
	C2450.357910,852.142090 2463.000977,843.043396 2466.764404,826.526611 
	C2468.872314,817.275757 2469.472412,807.323853 2468.725098,797.847717 
	C2466.573975,770.573303 2444.884033,756.394958 2419.025879,765.234558 
z"/>
<path fill="#1B1B1A" opacity="1.000000" stroke="none" 
	d="
M1175.570068,852.688904 
	C1173.728271,858.642151 1171.850342,864.171509 1170.371338,869.805481 
	C1169.633911,872.614807 1168.282349,873.508850 1165.472168,873.380432 
	C1160.828247,873.168030 1156.167358,873.322632 1150.684692,873.322632 
	C1162.904419,836.325195 1174.980957,799.761353 1187.141479,762.942932 
	C1193.015381,762.942932 1198.670410,762.816223 1204.309937,763.053711 
	C1205.391846,763.099304 1207.026733,764.374023 1207.374390,765.423523 
	C1219.146606,800.966980 1230.794067,836.551697 1242.447876,872.134277 
	C1242.486816,872.253357 1242.353027,872.429016 1242.047729,873.286865 
	C1236.070435,873.286865 1229.812012,873.439941 1223.576294,873.132874 
	C1222.562500,873.083008 1221.198486,871.143860 1220.764648,869.825195 
	C1218.475952,862.867493 1216.242920,855.878601 1214.395142,848.794983 
	C1213.606689,845.772034 1212.265503,844.830688 1209.250244,844.903809 
	C1201.422852,845.093567 1193.587158,844.911438 1185.756470,845.004517 
	C1176.206055,845.118042 1178.574585,843.708740 1175.570068,852.688904 
M1191.574463,799.013672 
	C1188.177368,810.088806 1184.780273,821.163940 1181.296509,832.521484 
	C1191.149170,832.521484 1200.451294,832.521484 1210.172607,832.521484 
	C1205.423950,816.064453 1200.818481,800.104126 1196.000732,783.407715 
	C1194.476807,788.810608 1193.146118,793.528320 1191.574463,799.013672 
z"/>
<path fill="#1B1B1A" opacity="1.000000" stroke="none" 
	d="
M218.654480,762.982910 
	C224.748672,762.934326 230.403732,762.934326 236.633286,762.934326 
	C248.703781,799.454041 260.775452,835.977356 273.124664,873.340332 
	C266.034149,873.340332 259.762390,873.464172 253.507019,873.200195 
	C252.619965,873.162781 251.420181,871.366150 251.032471,870.167786 
	C248.677979,862.890991 246.628983,855.513916 244.189102,848.267517 
	C243.743622,846.944458 241.988632,845.156311 240.803452,845.129639 
	C229.991974,844.887085 219.172836,844.987305 208.057556,844.987305 
	C205.931381,851.804199 203.967041,858.488525 201.759186,865.091370 
	C198.379959,875.197327 201.483856,873.071533 190.435959,873.311218 
	C187.474243,873.375488 184.509964,873.321045 180.851898,873.321045 
	C182.774521,867.365540 184.451813,862.050171 186.204773,856.759827 
	C196.148148,826.750610 206.099014,796.743713 216.099930,766.753662 
	C216.542816,765.425537 217.498520,764.268372 218.654480,762.982910 
M227.410721,788.132874 
	C226.986328,787.387329 226.561951,786.641846 225.795395,785.295227 
	C220.890564,801.481873 216.217682,816.903076 211.435486,832.685059 
	C221.335571,832.685059 230.547272,832.685059 240.274918,832.685059 
	C235.984863,817.845947 231.802612,803.379700 227.410721,788.132874 
z"/>
<path fill="#1B1B1A" opacity="1.000000" stroke="none" 
	d="
M1285.898193,775.029907 
	C1291.849365,798.820068 1297.707275,822.207825 1303.606934,845.762329 
	C1307.110962,831.985229 1310.578003,818.313721 1314.067017,804.647827 
	C1317.278931,792.067078 1320.587524,779.510315 1323.683594,766.901306 
	C1324.383667,764.050293 1325.414551,762.633240 1328.649292,762.819519 
	C1333.606323,763.104919 1338.591675,762.894409 1344.342407,762.894409 
	C1342.705688,768.645508 1341.267456,773.842102 1339.747925,779.014832 
	C1331.118164,808.390625 1322.351196,837.727051 1313.943604,867.166199 
	C1312.561768,872.004822 1310.630371,873.688232 1305.472656,873.469849 
	C1294.028198,872.985168 1294.067749,873.295532 1290.775757,862.324463 
	C1281.404175,831.092224 1271.982910,799.874878 1262.589355,768.649231 
	C1262.070923,766.925842 1261.624390,765.180725 1260.990112,762.888123 
	C1267.802612,762.888123 1274.108032,762.773560 1280.400879,763.002747 
	C1281.429810,763.040222 1282.912109,764.407104 1283.305542,765.481445 
	C1284.388428,768.438721 1285.004395,771.566956 1285.898193,775.029907 
z"/>
<path fill="#C8122C" opacity="1.000000" stroke="none" 
	d="
M2638.504395,815.505371 
	C2630.440430,821.553711 2628.175293,829.278137 2629.110596,838.808716 
	C2629.869873,846.547180 2629.264648,854.419617 2629.264648,862.554321 
	C2624.390869,862.554321 2619.833252,862.554321 2614.997803,862.554321 
	C2614.997803,825.836914 2614.997803,789.270508 2614.997803,752.395508 
	C2619.622803,752.395508 2624.181885,752.395508 2629.114258,752.395508 
	C2629.114258,771.143921 2629.114258,789.723877 2629.114258,809.531067 
	C2630.893066,807.900085 2631.940674,807.062622 2632.844971,806.091736 
	C2648.056885,789.762817 2663.354248,773.511108 2678.368164,757.001587 
	C2681.667480,753.373535 2684.980469,751.436829 2689.920654,752.019043 
	C2693.040527,752.386597 2696.239014,752.087585 2700.878174,752.087585 
	C2684.025391,769.869629 2667.904785,786.879089 2651.510498,804.177429 
	C2668.590088,823.575256 2685.487305,842.765808 2703.188477,862.869629 
	C2696.623779,862.869629 2691.073486,863.085327 2685.561035,862.725891 
	C2684.086670,862.629700 2682.496582,860.982666 2681.349121,859.699219 
	C2668.584717,845.422974 2655.926025,831.052185 2643.131104,816.803284 
	C2642.152832,815.713806 2641.365967,812.380188 2638.504395,815.505371 
z"/>
<path fill="#1C1C1B" opacity="1.000000" stroke="none" 
	d="
M645.999512,873.327515 
	C636.209778,873.327393 626.920105,873.327393 617.378784,873.327393 
	C617.378784,836.411072 617.378784,800.017639 617.378784,763.262573 
	C635.117493,763.262573 652.677490,763.262573 670.668274,763.262573 
	C670.668274,767.582581 670.668274,771.942322 670.668274,776.799683 
	C659.809753,776.799683 649.065735,776.799683 638.050903,776.799683 
	C638.050903,787.862305 638.050903,798.437256 638.050903,809.579224 
	C647.668091,809.579224 657.234924,809.579224 667.062866,809.579224 
	C667.062866,814.396729 667.062866,818.653809 667.062866,823.505737 
	C657.450623,823.505737 647.911621,823.505737 638.075256,823.505737 
	C638.075256,835.653137 638.075256,847.211365 638.075256,859.318604 
	C648.901733,859.318604 659.626648,859.318604 670.710449,859.318604 
	C670.710449,864.085144 670.710449,868.314453 670.710449,873.327576 
	C662.663086,873.327576 654.581299,873.327576 645.999512,873.327515 
z"/>
<path fill="#1A1A19" opacity="1.000000" stroke="none" 
	d="
M1377.864990,770.065857 
	C1377.865601,767.592712 1377.865601,765.611694 1377.865601,763.279663 
	C1395.734985,763.279663 1413.303345,763.279663 1431.294678,763.279663 
	C1431.294678,767.571411 1431.294678,771.936829 1431.294678,776.755371 
	C1420.405762,776.755371 1409.640625,776.755371 1398.576172,776.755371 
	C1398.576172,787.781860 1398.576172,798.372986 1398.576172,809.521729 
	C1408.076294,809.521729 1417.650757,809.521729 1427.595459,809.521729 
	C1427.595459,814.425232 1427.595459,818.778870 1427.595459,823.570312 
	C1417.909912,823.570312 1408.466797,823.570312 1398.641235,823.570312 
	C1398.641235,835.685608 1398.641235,847.367920 1398.641235,859.595215 
	C1409.679321,859.595215 1420.437256,859.595215 1431.415161,859.595215 
	C1431.415161,864.248474 1431.415161,868.368103 1431.415161,872.915283 
	C1413.814331,872.915283 1396.114990,872.915283 1377.864502,872.915283 
	C1377.864502,838.780090 1377.864502,804.669067 1377.864990,770.065857 
z"/>
<path fill="#191918" opacity="1.000000" stroke="none" 
	d="
M1857.793823,765.168701 
	C1858.624756,764.093994 1859.437744,762.995117 1860.257324,762.990295 
	C1877.064453,762.890381 1893.872314,762.915222 1911.086914,762.915222 
	C1911.086914,767.589661 1911.086914,771.965332 1911.086914,776.759644 
	C1900.275513,776.759644 1889.524780,776.759644 1878.460693,776.759644 
	C1878.460693,787.750610 1878.460693,798.338257 1878.460693,809.635376 
	C1887.967163,809.635376 1897.658203,809.635376 1907.598145,809.635376 
	C1907.598145,814.577759 1907.598145,818.813354 1907.598145,823.618774 
	C1897.779053,823.618774 1888.208008,823.618774 1878.414429,823.618774 
	C1878.414429,835.757812 1878.414429,847.326538 1878.414429,859.413940 
	C1889.407715,859.413940 1900.144287,859.413940 1911.169678,859.413940 
	C1911.169678,864.172424 1911.169678,868.415771 1911.169678,872.997864 
	C1893.481812,872.997864 1875.930176,872.997864 1857.778809,872.997864 
	C1857.778809,837.148254 1857.778809,801.401184 1857.793823,765.168701 
z"/>
<path fill="#C8132D" opacity="1.000000" stroke="none" 
	d="
M2502.076904,815.713745 
	C2502.776123,805.990723 2502.186523,796.395386 2504.473633,787.543335 
	C2512.260742,757.402832 2537.786865,747.927002 2562.195801,750.622864 
	C2571.761475,751.679321 2581.049805,755.538269 2590.336426,758.520142 
	C2591.752686,758.974854 2593.212646,761.532227 2593.370361,763.235840 
	C2593.791260,767.779236 2593.513428,772.387268 2593.513428,777.908447 
	C2590.457764,775.723389 2588.335693,774.190857 2586.198242,772.679810 
	C2575.282227,764.962891 2563.121826,761.651306 2549.864014,763.056763 
	C2534.912109,764.641846 2525.147705,773.167114 2520.291504,787.091980 
	C2515.958252,799.517639 2515.736328,812.329956 2519.373779,824.957520 
	C2525.104980,844.851013 2542.097900,854.954224 2563.023193,851.623291 
	C2574.184082,849.846619 2583.847900,845.088745 2593.401123,836.781738 
	C2593.401123,843.284424 2593.474609,848.606689 2593.306152,853.921387 
	C2593.285645,854.572327 2592.062744,855.372803 2591.237549,855.783081 
	C2574.456055,864.124756 2556.931396,867.539856 2538.490479,862.749390 
	C2517.775635,857.368286 2506.999023,842.917908 2503.042236,822.604431 
	C2502.629150,820.483398 2502.413574,818.323853 2502.076904,815.713745 
z"/>
<path fill="#1D1D1C" opacity="1.000000" stroke="none" 
	d="
M2031.397827,790.362671 
	C2038.625854,781.276611 2045.616333,772.454529 2052.974365,763.168945 
	C2067.817383,781.667847 2082.251953,799.657837 2097.070801,818.126465 
	C2082.503174,836.318726 2068.003418,854.426453 2053.051025,873.099243 
	C2050.041992,869.351196 2047.373779,866.036255 2044.714722,862.714111 
	C2033.797119,849.073853 2022.945312,835.380127 2011.911377,821.834717 
	C2009.796143,819.238159 2009.307739,817.552246 2011.731934,814.709045 
	C2018.421265,806.863403 2024.712036,798.677795 2031.397827,790.362671 
M2060.545410,845.053528 
	C2067.253662,836.581177 2073.962158,828.108826 2080.863770,819.392273 
	C2071.203613,807.372498 2061.672363,795.513489 2051.912354,783.369446 
	C2042.753540,794.911377 2034.099243,805.817505 2025.328247,816.870789 
	C2035.009399,828.919495 2044.463257,840.685425 2054.308105,852.938049 
	C2056.452148,850.223389 2058.273682,847.916870 2060.545410,845.053528 
z"/>
<path fill="#1D1D1C" opacity="1.000000" stroke="none" 
	d="
M820.334778,863.373901 
	C817.718689,866.605164 815.329102,869.559265 812.500183,873.056519 
	C797.784851,854.651550 783.396790,836.655884 768.619202,818.173035 
	C783.124023,799.999756 797.598816,781.864075 812.347046,763.385803 
	C813.583984,764.729797 814.623413,765.732849 815.518860,766.851135 
	C828.205994,782.695007 840.806458,798.609131 853.608582,814.359375 
	C855.878235,817.151611 856.194946,818.895447 853.727539,821.885681 
	C842.505493,835.485168 831.588257,849.336182 820.334778,863.373901 
M785.683105,817.867371 
	C794.914551,829.393738 804.145935,840.920044 813.789734,852.961304 
	C822.878296,841.485779 831.597168,830.477112 840.377441,819.390869 
	C830.568542,807.217712 821.111389,795.480957 811.670410,783.764404 
	C810.991699,784.241211 810.659851,784.380005 810.462830,784.626526 
	C804.742981,791.784424 798.980225,798.909241 793.351746,806.138489 
	C790.542114,809.747437 787.981750,813.550476 785.683105,817.867371 
z"/>
<path fill="#1D1D1C" opacity="1.000000" stroke="none" 
	d="
M993.038086,794.001465 
	C993.038086,820.608337 993.038086,846.715393 993.038086,873.076965 
	C986.027466,873.076965 979.593567,873.076965 972.557129,873.076965 
	C972.557129,841.116638 972.557129,809.249390 972.557129,776.973999 
	C965.541382,776.973999 959.112305,776.973999 952.281555,776.973999 
	C952.281555,772.213562 952.281555,767.859314 952.281555,763.202026 
	C972.662598,763.202026 992.887451,763.202026 1013.435181,763.202026 
	C1013.435181,767.654114 1013.435181,771.906555 1013.435181,776.694092 
	C1006.805542,776.694092 1000.242676,776.694092 993.038086,776.694092 
	C993.038086,782.638794 993.038086,788.070251 993.038086,794.001465 
z"/>
<path fill="#191918" opacity="1.000000" stroke="none" 
	d="
M1613.210693,798.000244 
	C1613.210815,823.147827 1613.210815,847.795471 1613.210815,872.881836 
	C1606.450195,872.881836 1599.912720,872.881836 1592.974365,872.881836 
	C1592.974365,841.214600 1592.974365,809.458130 1592.974365,777.133545 
	C1586.056641,777.133545 1579.498535,777.133545 1572.542114,777.133545 
	C1572.542114,772.207214 1572.542114,767.847107 1572.542114,763.198364 
	C1593.020386,763.198364 1613.243408,763.198364 1633.705078,763.198364 
	C1633.705078,767.728638 1633.705078,771.984314 1633.705078,776.719604 
	C1627.022583,776.719604 1620.433594,776.719604 1613.210693,776.719604 
	C1613.210693,783.952454 1613.210693,790.726379 1613.210693,798.000244 
z"/>
<path fill="#1B1B1A" opacity="1.000000" stroke="none" 
	d="
M530.457581,763.444458 
	C537.243958,763.108582 543.687988,763.108582 550.701904,763.108582 
	C550.701904,795.297485 550.701904,827.164734 550.701904,859.495056 
	C561.018250,859.495056 570.768311,859.495056 580.787964,859.495056 
	C580.787964,864.210815 580.787964,868.461609 580.787964,873.028748 
	C564.007324,873.028748 547.277344,873.028748 530.584351,873.028748 
	C530.373596,872.674988 530.070801,872.404114 530.070801,872.133240 
	C530.071289,836.015564 530.093811,799.897949 530.457581,763.444458 
z"/>
<path fill="#C8132D" opacity="1.000000" stroke="none" 
	d="
M2352.000000,862.883240 
	C2336.219971,862.883240 2320.939941,862.883240 2305.406738,862.883240 
	C2305.406738,825.798767 2305.406738,789.232971 2305.406738,752.375671 
	C2310.164795,752.375671 2314.744873,752.375671 2319.777832,752.375671 
	C2319.777832,784.633789 2319.777832,816.876404 2319.777832,849.584961 
	C2338.291016,849.584961 2356.367432,849.584961 2374.781250,849.584961 
	C2374.781250,854.113464 2374.781250,858.182007 2374.781250,862.883240 
	C2367.377441,862.883240 2359.938721,862.883240 2352.000000,862.883240 
z"/>
<path fill="#1C1C1B" opacity="1.000000" stroke="none" 
	d="
M1670.107300,794.000000 
	C1670.107300,783.543823 1670.107300,773.587585 1670.107300,763.285645 
	C1677.071167,763.285645 1683.623535,763.285645 1690.540894,763.285645 
	C1690.540894,799.724915 1690.540894,836.103271 1690.540894,872.906982 
	C1683.946777,872.906982 1677.260742,872.906982 1670.107300,872.906982 
	C1670.107300,846.709045 1670.107300,820.604553 1670.107300,794.000000 
z"/>
<path fill="#C73345" opacity="1.000000" stroke="none" 
	d="
M1850.485596,171.063934 
	C1850.513184,169.959656 1850.532593,168.503082 1851.231079,167.538223 
	C1860.351562,154.941788 1869.621094,142.453201 1878.742676,129.857605 
	C1885.006836,121.207687 1890.975952,112.342926 1897.296875,103.735672 
	C1907.384033,90.000137 1917.754395,76.472099 1927.805420,62.710629 
	C1932.943481,55.675785 1937.648071,48.324486 1943.069946,40.349281 
	C1939.950806,39.864887 1936.839600,38.961739 1933.727539,38.959354 
	C1837.303101,38.885452 1740.878784,38.880684 1644.454346,38.939629 
	C1637.469360,38.943897 1630.484619,39.510155 1622.583252,39.855137 
	C1624.444580,43.410938 1626.229248,46.820198 1627.972046,50.604588 
	C1624.708618,46.827297 1621.487183,42.674870 1617.560669,37.613777 
	C1728.208252,37.613777 1837.594604,37.613777 1948.042603,37.613777 
	C1915.326782,82.466377 1883.059937,126.703308 1850.485596,171.063934 
z"/>
<path fill="#C73345" opacity="1.000000" stroke="none" 
	d="
M1789.371216,254.971756 
	C1791.201782,251.138412 1793.053101,246.985992 1795.525513,243.243988 
	C1800.262939,236.074112 1805.203857,229.026123 1810.337769,222.134186 
	C1815.874756,214.701065 1821.856201,207.599426 1827.412231,200.179733 
	C1833.813721,191.630890 1839.932373,182.870773 1846.254272,174.261398 
	C1847.106934,173.100082 1848.426880,172.281998 1849.869995,171.224655 
	C1841.611938,183.178497 1833.075806,195.257217 1824.401489,207.235794 
	C1812.881592,223.144043 1801.253906,238.974274 1789.371216,254.971756 
z"/>
<path fill="#C73345" opacity="1.000000" stroke="none" 
	d="
M1628.053955,51.414135 
	C1630.582764,53.637165 1633.496216,55.941391 1635.673584,58.805290 
	C1640.329834,64.929611 1644.552002,71.381874 1649.049561,77.629570 
	C1655.318970,86.338120 1661.678345,94.982010 1667.997559,103.654732 
	C1671.581177,108.572784 1675.231079,113.444618 1678.707031,118.437592 
	C1680.002930,120.299026 1680.889038,122.445633 1681.906494,124.837563 
	C1677.566284,119.548920 1673.191528,113.950546 1669.013428,108.209000 
	C1655.338745,89.417061 1641.735596,70.572990 1628.053955,51.414135 
z"/>
<path fill="#E5E5E5" opacity="1.000000" stroke="none" 
	d="
M2821.912109,85.744385 
	C2813.910645,76.004562 2804.322021,67.970253 2791.964844,63.006298 
	C2795.234619,62.921909 2798.992432,62.291168 2802.135498,63.401119 
	C2809.570068,66.026497 2816.756592,69.384628 2821.936279,75.809021 
	C2822.906250,77.012169 2824.256836,77.908607 2824.439209,78.069725 
	C2823.482910,80.879593 2822.727783,83.097931 2821.912109,85.744385 
z"/>
<path fill="#C73345" opacity="1.000000" stroke="none" 
	d="
M1696.681396,145.872818 
	C1698.283325,146.942947 1700.412842,148.029221 1701.654419,149.754547 
	C1710.012207,161.368164 1718.192383,173.109787 1726.406738,184.826416 
	C1729.592651,189.370667 1732.717896,193.957535 1735.780151,198.899643 
	C1729.901733,191.585434 1724.026245,183.960602 1718.348022,176.191666 
	C1711.081787,166.250031 1703.974365,156.192276 1696.681396,145.872818 
z"/>
<path fill="#C73345" opacity="1.000000" stroke="none" 
	d="
M1752.942261,223.459854 
	C1754.901733,224.799103 1757.364136,226.156769 1758.860962,228.216339 
	C1766.400391,238.590027 1773.681152,249.151611 1781.084351,259.625000 
	C1781.437744,260.124939 1782.091309,260.412811 1782.705811,260.875153 
	C1784.236816,259.525604 1785.677368,258.255859 1787.450439,256.945129 
	C1786.290283,259.212402 1784.797485,261.520660 1782.685913,264.785858 
	C1772.444702,250.647018 1762.722290,237.224472 1752.942261,223.459854 
z"/>
<path fill="#C73345" opacity="1.000000" stroke="none" 
	d="
M1735.728760,199.610901 
	C1736.437012,199.569748 1737.486816,199.657806 1737.898560,200.216354 
	C1742.840210,206.917007 1747.700562,213.677841 1752.531250,220.459167 
	C1752.879395,220.947754 1752.832275,221.718002 1752.924194,222.734436 
	C1747.177734,215.393951 1741.475952,207.676300 1735.728760,199.610901 
z"/>
<path fill="#C73345" opacity="1.000000" stroke="none" 
	d="
M1682.379883,126.265259 
	C1682.839233,125.996971 1683.581299,125.877693 1683.773071,126.148399 
	C1688.130981,132.296234 1692.428711,138.486679 1696.579956,145.031097 
	C1691.750366,139.127319 1687.078369,132.861603 1682.379883,126.265259 
z"/>
<path fill="#E5E5E5" opacity="1.000000" stroke="none" 
	d="
M2824.010742,88.941910 
	C2823.199707,88.436005 2822.540039,87.607887 2821.851074,86.456467 
	C2823.613281,86.010010 2825.492188,85.804710 2824.010742,88.941910 
z"/>
<path fill="#E5E5E5" opacity="1.000000" stroke="none" 
	d="
M2824.454590,82.529556 
	C2824.423828,82.476074 2824.485107,82.583031 2824.454590,82.529556 
z"/>
<path fill="#C73345" opacity="1.000000" stroke="none" 
	d="
M1788.110596,256.714111 
	C1787.858276,256.466949 1787.939209,256.250183 1788.326660,256.034546 
	C1788.651489,256.279602 1788.588379,256.515869 1788.110596,256.714111 
z"/>
<path fill="#FFFFFF" opacity="1.000000" stroke="none" 
	d="
M103.830109,170.999908 
	C103.830109,146.699753 103.830109,122.899605 103.830109,98.677437 
	C105.738739,98.556831 107.325371,98.369133 108.912018,98.369057 
	C152.568863,98.366852 196.226974,98.600204 239.882278,98.347694 
	C308.618469,97.950111 366.959198,122.777199 414.100830,172.176041 
	C462.147491,222.523224 485.033234,283.258728 480.229065,352.985077 
	C474.261688,439.592712 432.575226,505.058868 358.508972,549.697083 
	C324.545013,570.166443 287.041199,579.602112 247.456467,579.900513 
	C200.802658,580.252197 154.144150,579.984680 107.487679,579.978821 
	C106.509689,579.978699 105.531715,579.896362 103.830116,579.819946 
	C103.830116,443.605316 103.830116,307.552612 103.830109,170.999908 
z"/>
<path fill="#FDFDFD" opacity="1.000000" stroke="none" 
	d="
M680.605103,302.610779 
	C717.640198,264.997253 762.134705,245.390900 814.645935,248.498016 
	C880.586548,252.399734 929.249756,284.716492 960.381592,343.124725 
	C960.743225,343.803223 960.869629,344.607086 961.220459,345.714172 
	C857.719971,345.714172 754.640564,345.714172 650.747498,345.714172 
	C658.367065,329.604309 668.479431,315.642822 680.605103,302.610779 
z"/>
<path fill="#FEFEFE" opacity="1.000000" stroke="none" 
	d="
M2396.392334,571.419373 
	C2346.288818,603.539490 2293.193359,610.330872 2238.176270,588.705383 
	C2178.898926,565.405334 2142.613525,520.900757 2129.675293,458.754486 
	C2109.673096,362.676819 2173.520264,268.858887 2269.987793,250.808365 
	C2349.062012,236.012375 2428.542236,279.680298 2460.769287,355.627533 
	C2493.755615,433.364349 2466.789062,524.089050 2396.392334,571.419373 
z"/>
<path fill="#EEEEEE" opacity="1.000000" stroke="none" 
	d="
M2774.998779,80.010345 
	C2795.855713,82.769218 2810.734863,100.436516 2811.757080,123.796814 
	C2812.312744,136.491211 2809.337158,148.099136 2801.069336,157.933228 
	C2796.828369,148.180588 2792.669434,138.616211 2788.510498,129.051834 
	C2787.754883,128.880295 2786.999512,128.708771 2786.243896,128.537231 
	C2787.264893,128.032928 2788.426025,127.699753 2789.285400,126.997612 
	C2796.715576,120.926399 2798.045898,112.870720 2796.404053,104.016136 
	C2794.757568,95.135445 2789.299805,89.350250 2780.711670,87.157036 
	C2775.300781,85.775169 2769.574219,85.629150 2763.661133,84.512024 
	C2767.221680,82.733620 2771.110107,81.371979 2774.998779,80.010345 
z"/>
<path fill="#EEEEEE" opacity="1.000000" stroke="none" 
	d="
M2742.014648,164.944687 
	C2745.334717,164.985794 2748.668213,165.233551 2751.972412,165.022415 
	C2757.787109,164.650879 2759.934082,162.303619 2760.010254,156.483078 
	C2760.088379,150.512283 2760.027588,144.539673 2760.027588,138.251465 
	C2764.453369,137.464676 2767.333008,139.199493 2768.836182,142.951538 
	C2770.439453,146.953079 2771.660889,151.110687 2772.981445,155.221771 
	C2775.584473,163.323868 2777.782471,165.005981 2786.184082,165.152939 
	C2787.964111,165.184082 2789.745117,165.157486 2791.695312,165.157486 
	C2784.191406,174.059845 2758.850098,177.934753 2742.160645,167.059509 
	C2741.992188,165.921417 2742.003418,165.433060 2742.014648,164.944687 
z"/>
<path fill="#E5E5E5" opacity="1.000000" stroke="none" 
	d="
M2741.767578,164.697067 
	C2742.003418,165.433060 2741.992188,165.921417 2741.962891,166.775711 
	C2729.035156,159.874283 2723.338135,148.003098 2721.086182,134.063675 
	C2720.536865,130.663513 2720.762939,127.138145 2721.077637,123.458252 
	C2722.333740,124.389862 2723.145020,125.533569 2723.798584,126.455162 
	C2727.175049,125.349953 2730.376709,124.301865 2732.110107,123.734467 
	C2734.140625,121.519691 2735.266602,120.291519 2736.392578,119.063354 
	C2736.496826,131.428818 2736.680420,143.794418 2736.657471,156.159637 
	C2736.650391,160.035614 2737.767822,162.933716 2741.767578,164.697067 
z"/>
<path fill="#A5A5A5" opacity="1.000000" stroke="none" 
	d="
M2722.639648,111.723892 
	C2724.850586,102.352654 2730.139893,95.061096 2736.630859,89.448349 
	C2736.630859,95.936523 2736.630859,102.511696 2736.038818,109.489502 
	C2731.177734,110.502724 2726.908691,111.113312 2722.639648,111.723892 
z"/>
<path fill="#D1D1D1" opacity="1.000000" stroke="none" 
	d="
M2722.378906,112.019371 
	C2726.908691,111.113312 2731.177734,110.502724 2735.879639,109.868835 
	C2736.437256,112.653885 2736.562012,115.462227 2736.539551,118.666962 
	C2735.266602,120.291519 2734.140625,121.519691 2732.110107,123.734467 
	C2730.376709,124.301865 2727.175049,125.349953 2723.798584,126.455162 
	C2723.145020,125.533569 2722.333740,124.389862 2721.206543,123.094704 
	C2721.299561,119.400452 2721.708984,115.857651 2722.378906,112.019371 
z"/>
<path fill="#D1D1D1" opacity="1.000000" stroke="none" 
	d="
M2772.151367,111.898949 
	C2770.411133,119.000000 2764.998291,116.447647 2760.410645,117.323997 
	C2760.410645,113.533310 2760.410645,110.195450 2760.410645,106.874245 
	C2768.081787,105.351875 2771.045410,106.532181 2772.151367,111.898949 
z"/>
<path fill="#A5A5A5" opacity="1.000000" stroke="none" 
	d="
M2774.665527,79.765823 
	C2771.110107,81.371979 2767.221680,82.733620 2763.220703,84.425934 
	C2757.082275,84.756599 2751.055908,84.756599 2743.627686,84.756599 
	C2754.156738,79.218315 2764.001221,77.969574 2774.665527,79.765823 
z"/>
<path fill="#F9F9F9" opacity="1.000000" stroke="none" 
	d="
M470.770752,837.644653 
	C471.559631,846.558777 471.054932,854.686401 462.363220,859.262390 
	C454.749573,863.270996 446.620697,862.956299 438.542938,860.845459 
	C437.533417,860.581726 436.215515,858.878357 436.201233,857.826294 
	C436.036621,845.701843 436.096222,833.574402 436.096222,821.524292 
	C454.356415,817.703796 466.985504,823.517517 470.770752,837.644653 
z"/>
<path fill="#F9F9F9" opacity="1.000000" stroke="none" 
	d="
M449.306946,810.444031 
	C444.753052,810.474609 440.640778,810.474609 436.315491,810.474609 
	C436.315491,798.476746 436.315491,786.893127 436.315491,774.884460 
	C445.528656,772.325195 454.903198,771.065125 462.844269,777.571594 
	C469.761322,783.239197 469.236084,791.555908 466.967499,799.285645 
	C464.533844,807.577820 457.397797,809.639771 449.306946,810.444031 
z"/>
<path fill="#FDFDFD" opacity="1.000000" stroke="none" 
	d="
M357.023132,800.512085 
	C353.641357,815.601624 342.213348,822.139832 326.542908,817.866272 
	C326.542908,810.585693 326.542236,803.126343 326.543152,795.666931 
	C326.543762,790.671875 326.994354,785.625427 326.428040,780.695618 
	C325.809387,775.309875 328.391479,773.859985 332.969910,773.196472 
	C347.585693,771.078186 356.560699,778.347839 357.138428,793.082458 
	C357.229553,795.406555 357.089081,797.739807 357.023132,800.512085 
z"/>
<path fill="#F9F9F9" opacity="1.000000" stroke="none" 
	d="
M1515.104980,813.087280 
	C1508.519653,819.269409 1500.749512,819.504272 1492.839233,818.644836 
	C1491.884766,818.541138 1490.432373,816.467285 1490.416016,815.289673 
	C1490.240723,802.798645 1490.225708,790.302795 1490.437988,777.812866 
	C1490.459839,776.525085 1491.988770,774.532898 1493.240234,774.107056 
	C1508.445801,768.933350 1520.526489,777.372864 1521.096436,793.331848 
	C1521.351929,800.484070 1520.600952,807.306030 1515.104980,813.087280 
z"/>
<path fill="#F9F9F9" opacity="1.000000" stroke="none" 
	d="
M1069.980713,787.025818 
	C1069.980713,785.031433 1069.980835,783.531677 1069.980713,782.031860 
	C1069.980591,773.924438 1070.476074,773.398193 1078.530640,773.057251 
	C1094.447388,772.383423 1103.383911,780.445312 1100.059204,802.143433 
	C1097.632202,817.983032 1083.693115,820.136719 1072.265381,818.570801 
	C1071.335938,818.443420 1070.113403,815.938232 1070.081787,814.514526 
	C1069.882202,805.520203 1069.980591,796.519165 1069.980713,787.025818 
z"/>
<path fill="#FFFEFE" opacity="1.000000" stroke="none" 
	d="
M2215.797363,833.998047 
	C2215.797363,825.541138 2215.797363,817.583618 2215.797363,808.548828 
	C2229.044434,809.112915 2241.986572,809.080872 2254.786377,810.414795 
	C2263.263672,811.298340 2268.122314,817.550537 2268.921875,825.537842 
	C2269.990234,836.216492 2266.604004,843.389526 2258.242188,846.976379 
	C2254.940674,848.392456 2251.247070,849.495117 2247.694824,849.612488 
	C2237.267822,849.956909 2226.821777,849.735168 2215.797363,849.735168 
	C2215.797363,844.690979 2215.797363,839.594238 2215.797363,833.998047 
z"/>
<path fill="#FDFDFD" opacity="1.000000" stroke="none" 
	d="
M2246.407715,795.859497 
	C2236.204346,795.932190 2226.413330,795.932190 2216.205811,795.932190 
	C2216.205811,786.111389 2216.205811,775.751526 2216.205811,765.341675 
	C2226.447266,765.341675 2236.745117,764.783813 2246.950439,765.517639 
	C2255.160889,766.107971 2258.779541,770.246277 2259.604492,777.212280 
	C2260.574463,785.404602 2257.193359,791.654419 2250.124756,794.660278 
	C2249.056885,795.114441 2247.923340,795.415039 2246.407715,795.859497 
z"/>
<path fill="#FFFEFE" opacity="1.000000" stroke="none" 
	d="
M2419.400879,765.118896 
	C2444.884033,756.394958 2466.573975,770.573303 2468.725098,797.847717 
	C2469.472412,807.323853 2468.872314,817.275757 2466.764404,826.526611 
	C2463.000977,843.043396 2450.357910,852.142090 2433.804688,852.271851 
	C2416.967773,852.403809 2404.675049,843.307495 2399.973145,826.762512 
	C2396.295410,813.821777 2396.396484,800.719849 2400.078369,787.792725 
	C2402.996094,777.548767 2409.067871,769.693970 2419.400879,765.118896 
z"/>
<path fill="#F5F5F4" opacity="1.000000" stroke="none" 
	d="
M1191.694946,798.629822 
	C1193.146118,793.528320 1194.476807,788.810608 1196.000732,783.407715 
	C1200.818481,800.104126 1205.423950,816.064453 1210.172607,832.521484 
	C1200.451294,832.521484 1191.149170,832.521484 1181.296509,832.521484 
	C1184.780273,821.163940 1188.177368,810.088806 1191.694946,798.629822 
z"/>
<path fill="#F5F5F4" opacity="1.000000" stroke="none" 
	d="
M227.515533,788.523132 
	C231.802612,803.379700 235.984863,817.845947 240.274918,832.685059 
	C230.547272,832.685059 221.335571,832.685059 211.435486,832.685059 
	C216.217682,816.903076 220.890564,801.481873 225.795395,785.295227 
	C226.561951,786.641846 226.986328,787.387329 227.515533,788.523132 
z"/>
<path fill="#F9F9F9" opacity="1.000000" stroke="none" 
	d="
M2060.320312,845.331909 
	C2058.273682,847.916870 2056.452148,850.223389 2054.308105,852.938049 
	C2044.463257,840.685425 2035.009399,828.919495 2025.328247,816.870789 
	C2034.099243,805.817505 2042.753540,794.911377 2051.912354,783.369446 
	C2061.672363,795.513489 2071.203613,807.372498 2080.863770,819.392273 
	C2073.962158,828.108826 2067.253662,836.581177 2060.320312,845.331909 
z"/>
<path fill="#F9F9F9" opacity="1.000000" stroke="none" 
	d="
M785.495850,817.566528 
	C787.981750,813.550476 790.542114,809.747437 793.351746,806.138489 
	C798.980225,798.909241 804.742981,791.784424 810.462830,784.626526 
	C810.659851,784.380005 810.991699,784.241211 811.670410,783.764404 
	C821.111389,795.480957 830.568542,807.217712 840.377441,819.390869 
	C831.597168,830.477112 822.878296,841.485779 813.789734,852.961304 
	C804.145935,840.920044 794.914551,829.393738 785.495850,817.566528 
z"/>
</svg>